<svg xmlns="http://www.w3.org/2000/svg" xmlns:xlink="http://www.w3.org/1999/xlink" version="1.1" x="0" y="0" viewBox="0 0 1024 768" xml:space="preserve" enable-background="new 0 0 1024 768">
  <style type="text/css">

	.st0{fill:#EB873C;}
	.st1{fill:#F7D130;stroke:#FDF1A5;stroke-width:3;stroke-miterlimit:10;}
	.st2{fill:#EB873C;stroke:#FDF1A5;stroke-width:3;stroke-miterlimit:10;}
	.st3{fill:#CCE7F9;stroke:#231F20;stroke-width:3;stroke-linejoin:round;stroke-miterlimit:10;}
	.st4{fill:#FDFDFD;stroke:#231F20;stroke-width:3;stroke-linejoin:round;stroke-miterlimit:10;}
	.st5{fill:#A5A543;stroke:#231F20;stroke-width:3;stroke-linejoin:round;stroke-miterlimit:10;}
	.st6{fill:#231F20;}
	.st7{fill:#CCE7F9;stroke:#231F20;stroke-width:3;stroke-miterlimit:10;}
	.st8{fill:#F7D130;stroke:#231F20;stroke-width:3;stroke-miterlimit:10;}
	.st9{fill:#FDFDFD;}
	.st10{fill:#A5A543;}


	#Mountains:hover{
  -webkit-transform: scale(0.5);
}
  </style>
  <g class="sky" id="Sun">
    <polygon class="st0" points="726.98 387.79 695.89 442.77 328.31 442.77 295.81 385.22 510.64 18.19 "/>
    <path class="st1" d="M728.2 382.36l-23.35-28.69 -15.29-18.78L512.73 117.6v-0.01l-0.02-0.03 0 0 85.41 46.2 -21-41.52 -64.95-5.33 -0.05-0.06 0.02 0.06 -0.3-0.02 0.16-0.04 -62.71-6.48 -8 22.48 67.7-15.32 -0.22 0.57 -86.42 47.27 -84 159 169.37-203.51L382.35 448.85h136l-9.04-329.9 1.53-1.84 0.73-0.17 0.69 0.37 0 0.01 0.01 0.03 87.47 274.22 0.03 0.12 2.27 7.09 0.88 2.77 0.56 1.76 7.47 23.43 2.02 6.31 10.14 31.79c16.61-0.33 33.2-0.65 49.8-0.97 0.85-0.02 1.71-0.03 2.56-0.05 0.72-0.01 1.46-0.03 2.19-0.05l9.72-5.97 8.5-15.04 12.23-21.64 18.86-33.34 1.54-2.73 0.6-1.06L728.2 382.36zM509.28 117.82l-0.01-0.36 1.13-0.25L509.28 117.82z"/>
    <polygon class="st1" points="511.4 115.24 511.4 114.95 511.49 114.99 511.4 115.24 511.59 115.03 511.68 115.06 511.4 115.24 511.87 115.14 512.12 115.24 512 115.11 570.35 103 559.35 84.85 511.84 114.96 511.75 114.86 552.35 71 535.35 47.85 511.59 114.7 511.4 114.5 511.4 12.85 482.75 54 510.74 113.83 470.81 73.24 460.91 94.76 511.23 114.88 "/>
    <circle id="sun" class="st2" cx="511.75" cy="116.85" r="29"/>
  </g>
  <g class="mountains" id="Mountains">
    <path class="st3" d="M632.24 367.46c13.01 7.38 19.49 22.45 23.37 36.89 1.32 4.91 2.51 10.02 5.58 14.08 3.07 4.05 8.63 6.74 13.32 4.8 2.32-0.96 4.11-2.88 5.53-4.95 2.63-3.81 4.3-8.63 3.06-13.09 -1.55-5.57-6.98-8.94-11.66-12.33C657.78 382.96 646.07 368.14 632.24 367.46z"/>
    <path class="st3" d="M322.46 357.06c-5.02 3.53-10.22 6.94-14.29 11.54 -4.07 4.6-6.92 10.66-6.2 16.76 0.55 4.59 3.02 8.69 5.44 12.63 2.39 3.9 4.78 7.79 7.17 11.69 0.74 1.21 1.55 2.48 2.83 3.08 1.99 0.94 4.46-0.12 5.85-1.83 1.39-1.71 1.96-3.92 2.57-6.04 2.96-10.3 7.57-20.12 13.59-28.97 2.74-4.02 5.77-7.85 8.3-12 4.28-7.01 16.05-39.2 18.8-46.94 1.52-4.29-8.11 8.18-20 20.18C338.45 345.29 329.07 352.4 322.46 357.06z"/>
    <path class="st4" d="M366.62 316.98c-5.2 30.61-27.97 55.06-39.46 83.9 -2.54 6.36-4.52 13.52-2.2 19.96 3.99 11.05 19.26 16.33 20.2 28.04 5.25-15.41-0.22-33.72 8.09-47.72 2.56-4.3 6.24-7.81 9.3-11.77 11.91-15.38 14.2-37 27.61-51.09C382.23 331.38 374.29 324.45 366.62 316.98z"/>
    <path class="st4" d="M516.51 218.57c-1.58 8.71 4.6 16.66 7.97 24.84 7.67 18.57 0.11 43.9 8.59 62.11 6.91 14.84 20.92 25.48 24.94 41.35 11.17-19.55 28.47-41.03 45.2-56.11 -13.74-11.66-28.84-21.73-44.88-29.93 -5.42-2.77-11.18-5.53-14.74-10.47 -1.67-2.33-2.77-5.04-4.53-7.3 -2.44-3.13-5.98-5.18-9.14-7.59C523.9 230.87 519.06 224.73 516.51 218.57z"/>
    <path class="st3" d="M516.34 218.57c-16.9 18.21-36.36 35.69-53.45 53.71 -10.77 11.35-21.65 22.67-33.78 32.56 -9.54 7.78-19.83 14.66-28.87 23.03 -14.68 13.59-25.79 30.99-31.93 50.03 -2.81 8.7-6.59 19.55-15.68 20.45 0.06 1.89 0.13 3.78 0.19 5.67 4.61 3.72 11.32 0.13 16.05-3.43 12.73-9.59 25.46-19.18 38.18-28.76 15.11 0.45 30.27-0.61 45.17-3.17 14.18-2.44 28.09-6.22 41.98-10 14.57-3.96 29.14-7.93 43.72-11.89 4.77 2.83 8.06 8.02 8.57 13.54 0.28 3.04-0.22 6.18 0.62 9.11 0.93 3.27 3.4 5.85 5.84 8.23 7.65 7.44 15.87 14.3 24.91 20.08 -0.15 0-0.31 0-1.01 0.21 6.74 7.15 14.62 13.22 23.25 17.91 4.35 2.37 8.99 4.41 13.92 4.89 6.58 0.64 13.07-1.54 19.32-3.69 9.54-3.28 19.09-6.57 28.63-9.85 10.14-3.49 21.79-8.6 24.02-19.09 -13.72-24.22-30.02-46.98-48.52-67.78 -4.44-4.99-9.05-9.93-12.19-15.82 -6.93-12.99-5.87-27.61-4.57-42.27 -18.8 28.31-39.2 54.51-61.21 80.4 -5.1-7.1-10.21-14.21-15.31-21.31 -5.95-8.29-12.06-16.93-13.93-26.96 -1.26-6.75-0.5-13.69-0.46-20.56C529.89 254.34 526.48 235.62 516.34 218.57z"/>
    <path class="st4" d="M621.58 263.49c3.88 9.91-2.9 21.28-0.21 31.57 2.74 10.47 5.22 11.82 10.87 21.05 3.08 5.03 13.35 15.49 17.53 19.64 2.44 2.43 12.24 13.57 14.35 16.59 6.82 9.76 12.59 20.83 19.41 30.58 4.09-7.68 12.31-17.56 19.73-22.12 -15.79-25.19-39.74-43.92-61.46-64.22 -6.35-5.93-12.86-12.63-14.36-21.19 -0.42-2.42-0.43-4.95-1.42-7.2C625.03 265.95 622.61 264.03 621.58 263.49z"/>
    <path class="st4" d="M516.34 325.89c8.02 10.83 9.33 21.48 8.27 33.23 -1.06 11.75-3.64 23.77-0.63 35.18 1.2 4.54 3.29 8.98 3.07 13.66 -0.32 7.02-5.43 15.07-0.65 20.22 3.54 3.82 9.76 2.5 14.72 0.89 8.07-2.63 16.46-5.44 22.49-11.43 5.68-5.64 9.78-14.29 17.72-15.34 -3.03-17.32-20.38-27.92-29.82-42.76 -5.58-8.77-10.06-20.5-20.31-22.22 -1.23-0.21-2.51-1-3.64-1.53 -2.25-1.06-3.21-2.93-4.55-5.03C521.67 328.67 518.09 326.2 516.34 325.89z"/>
    <path class="st4" d="M461.68 346.13c-0.26-2.57-0.69 9.73-3.58 13.67 -2.88 3.94-6.57 7.31-9 11.55 -1.67 2.91-2.68 6.13-3.69 9.33 -2.15 6.83-4.29 13.66-6.44 20.48 -0.96 3.04-1.92 6.14-1.93 9.33 -0.02 7.84 6.19 14.89 13.71 17.09 7.52 2.2 15.87 0.07 22.3-4.41s11.13-11.07 14.64-18.08c2.22-4.42 4.05-9.25 3.69-14.18 -0.26-3.47-1.59-6.8-1.77-10.28 -0.27-5.34 2.12-11.14-0.53-15.78 -1.3-2.28-3.6-3.78-5.81-5.2C476.53 355.33 469.77 351 461.68 346.13z"/>
    <path class="st4" d="M411.18 365.68c-10.4 15.09-20.11 30.66-29.1 46.64 -2.76 4.92-5.53 10.13-5.62 15.77 -0.09 5.64 3.42 11.76 8.99 12.64 4.07 0.64 7.99-1.55 11.52-3.65 4.49-2.67 9.12-5.46 12.16-9.71 5.43-7.56 4.73-18.03 9.17-26.2 3.27-6.01 9.45-11.83 7.47-18.38 -0.71-2.33-2.39-4.22-4.02-6.03C418.33 372.96 414.91 369.17 411.18 365.68z"/>
    <path class="st5" d="M349.92 410.67c3.1-5.52 8.95-8.82 14.51-11.85 5.05-2.75 10.09-5.49 15.14-8.24 1.61-0.87 3.22-1.76 4.63-2.93 2.01-1.68 3.51-3.91 5.51-5.61 3.23-2.75 7.61-3.63 11.33-5.68 4.63-2.55 6.08-6.6 8.37-8.89 1.6-1.72-22.32 37.03-33.48 55.54 -2.2 3.64-5.15 7.74-9.4 7.71 -2.53-0.01-4.8-1.56-6.67-3.27C355.32 423.33 352.03 417.87 349.92 410.67z"/>
    <path class="st5" d="M435.12 373.57c6.79-7.21 13.57-14.43 20.36-21.64 1.58-1.68 3.17-3.37 4.75-5.05 0.77 9.64-8.42 16.82-12.53 25.58 -2.86 6.1-3.22 13.07-5.31 19.48 -2.09 6.41-6.96 12.84-13.69 13.17 0.18-7.09 0.84-14.17 1.96-21.18C431.39 379.44 432.83 374.31 435.12 373.57z"/>
    <path class="st5" d="M477.08 355.88c11.86-5.74 30.33-16.55 36.89-31.61 9.17 8.85 10.86 22.88 10.25 35.62 -0.61 12.73-2.93 25.73 0.33 38.05 0.75 2.85 1.81 5.76 1.36 8.68 -0.69 4.45-4.71 7.62-8.78 9.54 -1.39 0.65-2.86 1.22-4.39 1.25 -2.17 0.03-4.2-1.03-6.11-2.06 -4.98-2.69-10.26-5.68-12.78-10.75 -1.32-2.65-1.75-5.65-1.99-8.6 -0.6-7.26-0.17-14.61 1.29-21.76 -2.93-1.95-6.73-5.27-5.49-8.56 0.4-1.06-1.47-2.94-1.96-3.96C485.69 361.72 477.87 355.34 477.08 355.88z"/>
    <path class="st5" d="M631.45 370.7c5.2-0.11 9.94 3.39 12.75 7.77s4.05 9.55 5.24 14.61c0.72 3.05 1.43 6.1 2.15 9.15 0.66 2.82 1.21 6.15-0.72 8.31 -1.6 1.8-4.43 2.02-6.69 1.18 -2.26-0.84-4.08-2.53-5.83-4.17 -3.59-3.37-7.36-7.05-8.38-11.86 -0.91-4.27 0.51-8.64 1.43-12.91C632.31 378.51 632.58 373.62 631.45 370.7z"/>
    <path class="st5" d="M679.77 399.01c4.81-4.81 2.52-13.77 5.62-20.09 1.66-3.38 4.65-5.88 7.56-8.27 3.45-2.84 6.91-5.68 10.36-8.52 2.59 8.23 8.01 15.53 15.12 20.4 0.73 0.5 1.53 1.04 1.81 1.87 0.38 1.13-0.31 2.3-0.97 3.29 -6.91 10.37-13.82 20.74-20.73 31.12 -0.92 1.39-2.13 2.93-3.79 2.92 -0.86-0.01-1.65-0.44-2.37-0.91 -4.7-3.09-7.93-8.31-8.59-13.9C683.34 403.02 679 399.34 679.77 399.01z"/>
    <path class="st6" d="M399.77 380.39c-0.13-0.01-0.25-0.02-0.38-0.03 -0.06-0.01-0.2-0.03-0.27-0.04 -0.48-0.09-0.95-0.18-1.42-0.33 -0.12-0.04-0.24-0.08-0.35-0.13 0 0-0.01 0-0.01-0.01 -0.04-0.02-0.09-0.04-0.13-0.06 -0.24-0.11-0.47-0.24-0.69-0.39 -0.01-0.01-0.04-0.03-0.06-0.05 -0.09-0.08-0.18-0.16-0.26-0.25 -0.03-0.03-0.06-0.07-0.09-0.1 -0.05-0.1-0.13-0.2-0.19-0.3 -0.35-0.64-1.29-0.9-1.91-0.5 -0.65 0.42-0.88 1.22-0.5 1.91 0.7 1.28 1.98 2.05 3.32 2.51 0.56 0.2 1.15 0.33 1.74 0.41 0.8 0.11 2.09 0.4 2.67-0.32 0.22-0.27 0.4-0.56 0.38-0.93 -0.02-0.37-0.16-0.64-0.38-0.93C400.87 380.42 400.28 380.42 399.77 380.39z"/>
    <path class="st6" d="M396.98 384.97c-0.44-0.1-0.88-0.2-1.31-0.33 -0.48-0.14-0.95-0.31-1.42-0.5 -0.14-0.06-0.28-0.12-0.42-0.17 -0.08-0.03-0.17-0.07-0.25-0.1 -0.01 0-0.02-0.01-0.03-0.01 0 0 0 0-0.01 0 -0.67-0.3-1.35-0.61-1.99-0.99 -0.15-0.09-0.3-0.19-0.44-0.28 -0.02-0.02-0.03-0.02-0.03-0.02 -0.01-0.01-0.01-0.01-0.03-0.03 -0.06-0.05-0.11-0.1-0.17-0.15 -0.07-0.06-0.13-0.13-0.2-0.19 -0.01-0.01-0.02-0.02-0.03-0.02 -0.01-0.01-0.01-0.01-0.01-0.02 -0.09-0.15-0.18-0.29-0.25-0.45 -0.27-0.6-1.15-0.75-1.68-0.44 -0.62 0.36-0.72 1.07-0.44 1.68 0.71 1.54 2.32 2.6 3.81 3.29 0.85 0.39 1.72 0.76 2.62 1.04 0.5 0.16 1.02 0.29 1.53 0.4 0.74 0.16 1.44 0.35 2.15-0.02 0.76-0.4 0.78-1.41 0.26-1.99C398.21 385.15 397.58 385.1 396.98 384.97z"/>
    <path class="st6" d="M395.58 389.4c-0.42-0.2-0.69-0.21-1.13-0.16 -0.01 0-0.02 0-0.04 0 -0.08 0-0.16 0-0.23 0.01 -0.02 0-0.02 0-0.04 0 -0.01 0-0.02-0.01-0.04-0.01 -0.11-0.02-0.22-0.04-0.32-0.07 -0.2-0.05-0.4-0.1-0.6-0.17 -0.75-0.24-1.48-0.53-2.22-0.82 -0.86-0.34-1.73-0.64-2.58-1 -0.39-0.17-0.81-0.38-1.21-0.56 -0.41-0.19-0.84-0.36-1.18-0.66 -0.91-0.83-2.28 0.53-1.36 1.36 0.37 0.34 0.71 0.72 1.1 1.04 0.47 0.38 0.96 0.7 1.48 0.98 0.98 0.54 2.01 0.96 3.04 1.38 0.01 0.01 0.01 0 0.02 0.01 0.01 0 0 0 0.01 0.01 0.09 0.04 0.18 0.08 0.27 0.12 0.2 0.09 0.4 0.17 0.6 0.26 0.49 0.21 0.99 0.4 1.5 0.54 1.1 0.31 2.63 0.61 3.37-0.49C396.4 390.62 396.18 389.68 395.58 389.4z"/>
    <path class="st6" d="M390.78 394.16c-0.12-0.01-0.23-0.03-0.35-0.04 -0.04-0.01-0.1-0.01-0.16-0.03 -0.5-0.12-0.98-0.32-1.45-0.53 -1.05-0.48-2.05-1.05-3.06-1.59 -1.08-0.58-2.17-1.12-3.22-1.76 -1.25-0.77-2.34 1.15-1.14 1.95 1 0.67 1.91 1.44 2.9 2.11 0.97 0.66 2.04 1.21 3.11 1.7 0.94 0.44 1.87 0.8 2.9 0.93 0.33 0.04 0.67 0.08 1 0.11 0.08 0.02 0.15 0.02 0.23 0.04 0.11 0.02 0.23 0.06 0.34 0.08 0.61 0.1 1.22-0.07 1.55-0.63 0.28-0.48 0.26-1.3-0.22-1.67C392.5 394.28 391.65 394.26 390.78 394.16z"/>
    <path class="st6" d="M388.59 400.38c-0.39-0.15-0.89-0.07-1.3-0.14 -0.78-0.13-1.58-0.36-2.34-0.6 -1.39-0.44-2.69-1.1-4.01-1.72 -1.26-0.6-2.6-1.06-3.82-1.75 -0.58-0.33-1.08-0.72-1.62-1.12 -0.42-0.31-0.99-0.56-1.25-1.02 -0.64-1.13-2.25-0.14-1.72 1 0.53 1.13 1.8 2.14 2.75 2.91 1.29 1.03 2.76 1.67 4.24 2.37 1.49 0.71 2.98 1.45 4.55 1.96 0.84 0.28 1.72 0.52 2.59 0.67 0.55 0.09 1.37 0.26 1.91 0.04C389.86 402.48 389.88 400.89 388.59 400.38z"/>
    <path class="st6" d="M383.67 406.83c-3.31 0.74-6.89-0.87-10.04-1.72 -1.74-0.47-3.47-0.95-5.08-1.78 -1.76-0.91-3.19-2.16-4.55-3.59 -0.93-0.98-2.38 0.49-1.48 1.48 1.39 1.52 2.79 3.18 4.52 4.33 1.74 1.16 3.85 1.7 5.85 2.25 3.73 1.02 7.61 2.61 11.52 1.73C386.16 409.14 385.42 406.44 383.67 406.83z"/>
    <path class="st6" d="M377.3 414.93c-0.92-0.19-1.83-0.39-2.73-0.67 -2.17-0.69-4.28-1.69-6.34-2.65 -2.02-0.94-3.91-2.12-5.64-3.53 -0.84-0.68-1.69-1.37-2.45-2.15 -0.74-0.76-1.32-1.64-2.11-2.35 -0.67-0.61-1.67 0.37-1 1 0.73 0.69 1.28 1.53 1.93 2.3 0.77 0.92 1.68 1.74 2.59 2.52 1.7 1.46 3.6 2.68 5.6 3.69 3.85 1.94 7.8 3.49 12.07 4.18 0.93 0.15 1.37-0.92 0.63-1.49C379.12 415.24 378.14 415.1 377.3 414.93z"/>
    <path class="st6" d="M377.85 419.59c-4.54-0.72-9.06-2.12-13.08-4.4 -1.98-1.12-3.74-2.58-5.76-3.64 -2-1.06-4.06-1.99-5.68-3.61 -0.76-0.76-1.94 0.41-1.18 1.18 1.6 1.63 3.58 2.74 5.56 3.84 2.25 1.25 4.17 2.96 6.4 4.23 2.15 1.22 4.54 2.13 6.89 2.87 2.1 0.66 4.63 1.72 6.85 1.18C378.63 421.05 378.7 419.72 377.85 419.59z"/>
    <path class="st6" d="M375.22 424.34c-1.75-0.77-3.71-0.73-5.56-1.04 -2.2-0.37-4.42-0.95-6.5-1.74 -4.39-1.67-8.58-4.7-12.13-7.73 -0.7-0.6-1.73 0.39-1.03 1.03 3.53 3.24 7.42 6.27 11.87 8.18 2.04 0.88 4.19 1.48 6.35 1.96 2.07 0.46 4.19 0.58 6.23 1.17C375.51 426.47 376.28 424.8 375.22 424.34z"/>
    <path class="st6" d="M458.52 355.26c-0.35-0.27-0.8-0.41-1.2-0.56 -0.18-0.07-0.37-0.12-0.56-0.19 -0.01 0-0.04-0.02-0.07-0.03 -0.03-0.01-0.06-0.03-0.07-0.03 -0.09-0.05-0.18-0.09-0.27-0.15 -0.08-0.05-0.16-0.09-0.23-0.14 -0.04-0.03-0.07-0.05-0.11-0.08 -0.01-0.01 0 0-0.01 0 -0.14-0.07-0.27-0.23-0.38-0.32 -0.33-0.28-0.66-0.56-1.01-0.81 -0.37-0.26-0.98-0.08-1.18 0.31 -0.23 0.44-0.09 0.91 0.31 1.18 0.06 0.04 0.15 0.09 0.2 0.14 0 0 0 0 0 0 0.04 0.03 0.09 0.07 0.13 0.11 0.14 0.11 0.27 0.23 0.41 0.34 0.33 0.27 0.67 0.54 1.03 0.78 0.37 0.24 0.81 0.46 1.24 0.55 0.24 0.05 0.48 0.08 0.72 0.11 -0.12-0.02-0.05-0.01 0.03 0.01 0.05 0.01 0.1 0.02 0.14 0.02 0.05 0.01 0.1 0.02 0.14 0.03 0.03 0 0.33 0.05 0.18 0.03 0.36 0.05 0.69-0.06 0.84-0.41C458.96 355.8 458.8 355.48 458.52 355.26z"/>
    <path class="st6" d="M456.86 359.75c-0.29-0.05-0.58-0.05-0.82-0.1 -0.29-0.06-0.57-0.14-0.84-0.24 -0.51-0.18-0.93-0.38-1.44-0.6 -0.97-0.43-1.94-0.88-2.65-1.69 -0.26-0.3-0.78-0.27-1.05 0 -0.3 0.3-0.26 0.74 0 1.05 0.8 0.92 1.9 1.53 2.99 2.04 0.57 0.27 1.13 0.54 1.72 0.75 0.64 0.23 1.42 0.46 2.09 0.28 0.33-0.08 0.57-0.41 0.57-0.75C457.43 360.18 457.19 359.8 456.86 359.75z"/>
    <path class="st6" d="M454.27 364.65c-0.58-0.39-1.31-0.38-1.95-0.62 -0.6-0.23-1.18-0.55-1.74-0.87 -1.13-0.65-2.09-1.48-3.04-2.37 -0.71-0.67-1.78 0.39-1.07 1.07 1.02 0.98 2.07 1.97 3.28 2.71 1.26 0.76 2.65 1.44 4.16 1.42C454.64 365.98 454.85 365.04 454.27 364.65z"/>
    <path class="st6" d="M448.99 366.25c-0.63-0.13-1.26-0.25-1.86-0.49 -0.53-0.21-1.07-0.42-1.57-0.69 -0.5-0.27-0.82-0.75-1.25-1.1 -0.31-0.25-0.74-0.3-1.05 0 -0.27 0.27-0.3 0.78 0 1.05 0.47 0.4 0.82 0.9 1.33 1.27 0.54 0.4 1.13 0.67 1.75 0.94 0.65 0.28 1.3 0.46 1.99 0.6 0.68 0.14 1.37 0.39 2.06 0.44 0.63 0.05 1.03-0.88 0.54-1.3C450.37 366.52 449.66 366.39 448.99 366.25z"/>
    <path class="st6" d="M446.95 370.68c-0.67-0.42-1.21-1.04-1.71-1.64 -0.49-0.59-1.01-1.07-1.65-1.48 -0.57-0.36-1.22-0.75-1.89-0.86 -0.41-0.07-0.83 0.11-0.95 0.54 -0.11 0.38 0.13 0.87 0.54 0.95 0.55 0.11 1.09 0.52 1.58 0.88 0.06 0.05 0.12 0.09 0.25 0.2 0.15 0.13 0.28 0.27 0.41 0.41 0.27 0.31 0.5 0.65 0.75 0.97 0.52 0.66 1.18 1.28 1.91 1.7 0.43 0.25 0.89 0.39 1.39 0.44 0.43 0.05 0.92 0.11 1.34 0.01 0.54-0.14 0.7-0.83 0.32-1.22C448.63 371.01 447.65 371.11 446.95 370.68z"/>
    <path class="st6" d="M443.8 375.02c-0.73-0.4-1.34-0.98-1.87-1.61 -0.53-0.63-1.07-1.21-1.84-1.55 -0.79-0.36-1.63-0.51-2.49-0.58 -0.43-0.04-0.8 0.39-0.8 0.8 0 0.47 0.37 0.76 0.8 0.8 0.66 0.06 1.36 0.2 1.95 0.51 0.71 0.37 1.08 1.03 1.55 1.64 0.52 0.67 1.21 1.26 1.96 1.67 0.42 0.23 0.85 0.37 1.33 0.44 0.41 0.06 0.91 0.2 1.31 0.17 0.71-0.06 1.2-0.93 0.61-1.48C445.64 375.18 444.59 375.45 443.8 375.02z"/>
    <path class="st6" d="M444.13 384.81c-0.8-0.35-1.92-0.52-2.36-1.34 -0.23-0.43-0.42-0.86-0.8-1.2 -0.45-0.41-1.07-0.65-1.61-0.92 -1.02-0.51-2.02-1.08-3.05-1.57 -0.94-0.45-1.89-0.95-2.53-1.8 -0.25-0.33-0.65-0.49-1.03-0.27 -0.33 0.19-0.51 0.7-0.27 1.03 0.69 0.96 1.6 1.58 2.55 2.24 1.03 0.72 2.07 1.35 3.18 1.94 0.49 0.26 1.14 0.51 1.54 0.89 0.3 0.29 0.41 0.77 0.66 1.11 0.83 1.12 2.06 1.3 3.36 1.19C444.38 386.06 444.84 385.12 444.13 384.81z"/>
    <path class="st6" d="M511.41 329.01c-0.27 0.27-0.34 0.85 0 1.11 0.24 0.19 0.48 0.37 0.76 0.5 0.36 0.18 0.57 0.24 0.89 0.36 0.6 0.24 1.23 0.36 1.87 0.43 0.6 0.06 1.2 0.1 1.81 0.08 0.6-0.02 1.3 0.03 1.85-0.24 0.26-0.13 0.4-0.47 0.36-0.74 -0.05-0.32-0.25-0.5-0.54-0.62 -0.46-0.19-1.1-0.09-1.59-0.11 -0.56-0.02-1.11-0.03-1.67-0.08 -0.25-0.02-0.51-0.05-0.76-0.08 -0.02 0-0.1-0.01-0.11-0.02 -0.07-0.01-0.14-0.02-0.21-0.03 -0.13-0.02-0.25-0.04-0.38-0.06 -0.13-0.03-0.27-0.06-0.4-0.09 -0.03-0.01-0.03-0.01-0.03-0.01 -0.01-0.01-0.02-0.01-0.05-0.02 -0.05-0.02-0.1-0.04-0.14-0.07 -0.11-0.06-0.23-0.12-0.34-0.18 -0.04-0.03-0.09-0.05-0.13-0.08 -0.01-0.01-0.2-0.15-0.08-0.05C512.19 328.75 511.73 328.69 511.41 329.01z"/>
    <path class="st6" d="M509.05 333c1.69 0.83 3.55 1.03 5.39 1.27 0.97 0.12 1.9 0.26 2.88 0.17 1.03-0.09 2.07-0.28 3.06-0.55 0.76-0.21 0.62-1.4-0.19-1.39 -0.97 0.01-1.91 0.27-2.87 0.37 -0.89 0.1-1.74 0.01-2.62-0.11 -1.64-0.22-3.38-0.36-4.88-1.08C508.94 331.28 508.17 332.57 509.05 333z"/>
    <path class="st6" d="M508.05 334.5c-0.56-0.79-1.87-0.05-1.31 0.77 1.6 2.34 4.38 3.47 7.05 4.1 2.81 0.66 6.32 0.93 8.69-1.03 0.64-0.53-0.17-1.41-0.84-1.08 -2.4 1.17-4.95 1.12-7.51 0.52C511.95 337.27 509.39 336.41 508.05 334.5z"/>
    <path class="st6" d="M498.05 342.19c1.28-0.59 2.53-1.23 3.76-1.91 0.85-0.48 1.85-0.95 2.67-1.56 0.08 0.18 0.23 0.32 0.49 0.37 3.84 0.79 6.91 3.17 10.44 4.7 1.61 0.7 3.4 0.89 5.13 0.69 1.28-0.14 2.78-0.3 3.61-1.4 0.46-0.62-0.46-1.54-1.08-1.08 -0.93 0.7-2.42 0.72-3.55 0.75 -1.82 0.05-3.33-0.46-4.94-1.26 -2.94-1.47-5.84-3.18-9.09-3.84 0.31-0.8-0.33-1.82-1.31-1.54 -1.24 0.36-2.36 1.21-3.49 1.81 -1.24 0.66-2.5 1.28-3.77 1.88 -2.54 1.19-5.14 2.2-7.82 3.02 -5.63 1.71-10.8 4.5-16.09 7.02 -1.54 0.73-0.2 3.02 1.34 2.29 5.36-2.53 10.65-5.04 16.27-6.96C493.14 344.29 495.63 343.31 498.05 342.19z"/>
    <path class="st6" d="M503.28 344.01c1.15 0.43 2.29 0.81 3.37 1.41 2.13 1.18 4.12 2.58 6.32 3.66 2.1 1.03 4.3 1.83 6.63 2.13 1.63 0.21 3.9 0.33 5.01-1.13 0.43-0.57-0.28-1.39-0.91-1.19 -0.94 0.3-1.66 0.46-2.67 0.4 -1.05-0.07-2.07-0.22-3.09-0.49 -2.27-0.59-4.37-1.62-6.42-2.73 -3.69-2-7.49-4.5-11.85-4.45 -0.97 0.01-0.97 1.49 0 1.51C500.91 343.14 502.12 343.57 503.28 344.01z"/>
    <path class="st6" d="M524.33 353.53c-1.32 0-2.63 0.36-3.96 0.28 -1.39-0.08-2.83-0.45-4.16-0.84 -2.82-0.82-5.42-2.22-8.02-3.57 -4.3-2.24-8.55-4.87-13.61-4.07 -0.79 0.12-0.61 1.5 0.19 1.41 5.57-0.65 10.02 2.8 14.66 5.26 2.37 1.26 4.76 2.39 7.38 3.03 1.23 0.3 2.53 0.57 3.79 0.58 1.33 0.01 2.63-0.33 3.94-0.55C525.42 354.9 525.19 353.52 524.33 353.53z"/>
    <path class="st6" d="M495.36 350.39c1.5 0.47 3 0.95 4.47 1.51 1.44 0.54 2.79 1.17 4.05 2.06 1.28 0.9 2.44 1.95 3.75 2.81 2.37 1.55 5.02 2.66 7.75 3.41 2.74 0.75 5.52 1.44 8.25 0.46 1.06-0.38 0.62-1.81-0.46-1.66 -1.6 0.22-2.89 0.21-4.48-0.13 -1.42-0.3-2.83-0.65-4.21-1.11 -2.75-0.91-5.45-2.18-7.76-3.93 -2.29-1.73-4.66-2.89-7.36-3.83 -2.62-0.92-5.48-2.04-8.3-1.97 -0.94 0.02-0.95 1.47 0 1.47C492.54 349.47 493.97 349.95 495.36 350.39z"/>
    <path class="st6" d="M523.5 361.93c-0.6 0.24-1.14 0.63-1.76 0.79 -0.91 0.23-1.96 0.21-2.88 0.07 -1.72-0.26-3.45-0.69-5.13-1.14 -3.37-0.89-6.44-2.25-9.46-3.99 -2.96-1.71-5.87-3.38-8.97-4.84 -2.44-1.14-5.72-3.04-8.51-2.41 -0.94 0.21-0.54 1.62 0.4 1.43 1.5-0.31 3.7 0.74 5.04 1.34 1.58 0.69 3.16 1.45 4.68 2.26 3.07 1.64 5.9 3.67 8.95 5.34 2.98 1.63 6.24 2.55 9.55 3.23 1.55 0.32 3.14 0.68 4.73 0.71 1.66 0.02 2.68-0.41 3.99-1.34C524.8 362.92 524.41 361.57 523.5 361.93z"/>
    <path class="st6" d="M492.44 357.72c1.92 1.02 3.53 2.33 4.98 3.93 1.26 1.39 2.56 2.64 4.11 3.71 3.09 2.12 6.63 3.57 10.14 4.83 3.66 1.31 8.07 2.23 11.85 0.88 1.05-0.37 0.61-1.78-0.45-1.63 -2.21 0.31-4.16 0.45-6.37 0.04 -1.89-0.34-3.77-0.83-5.56-1.53 -3.31-1.29-6.87-2.87-9.68-5.07 -1.45-1.13-2.59-2.57-3.95-3.8 -1.35-1.23-2.94-2.26-4.57-3.07 -1.65-0.82-3.41-1.47-5.19-1.97 -1.69-0.48-3.69-0.47-5.29-1.2 -0.81-0.37-1.53 0.78-0.71 1.22 1.59 0.86 3.42 0.96 5.13 1.46C488.78 356.06 490.68 356.79 492.44 357.72z"/>
    <path class="st6" d="M502.34 370.46c3.13 1.88 6.74 3.16 10.26 4.12 3.36 0.92 7.37 1.85 10.77 0.67 0.76-0.26 0.71-1.61-0.2-1.51 -3.78 0.43-7.32-0.11-10.95-1.21 -3.55-1.07-7.1-2.48-10.21-4.51 -2.91-1.9-5.53-4.14-8.63-5.75 -3.15-1.63-6.56-2.11-9.83-3.38 -0.89-0.35-1.26 1.07-0.39 1.43 1.75 0.71 3.6 1.11 5.4 1.66 1.73 0.53 3.37 1.32 4.92 2.24C496.57 366.09 499.23 368.6 502.34 370.46z"/>
    <path class="st6" d="M498.74 375.07c2.79 0.95 5.65 1.76 8.48 2.58 5.03 1.45 11.16 3.33 16.21 1.01 0.84-0.39 0.22-1.59-0.6-1.42 -1.35 0.28-2.64 0.7-4.03 0.74 -1.52 0.05-3.07-0.18-4.56-0.45 -2.83-0.5-5.59-1.28-8.33-2.1 -2.68-0.8-5.43-1.45-8.07-2.4 -2.39-0.86-4.53-1.98-7.15-1.6 -0.79 0.11-0.61 1.51 0.19 1.41C493.64 372.48 496.22 374.21 498.74 375.07z"/>
    <path class="st6" d="M499.66 380.82c2.59 1.6 4.88 3.56 7.28 5.42 2.26 1.76 4.67 3.26 7.41 4.15 2.98 0.97 5.67 0.82 8.62-0.11 0.84-0.26 0.75-1.75-0.22-1.63 -1.44 0.19-2.82 0.63-4.28 0.59 -1.6-0.04-3.17-0.49-4.65-1.09 -2.82-1.14-5.28-2.95-7.68-4.79 -4.12-3.17-9.05-7.14-14.57-7.01 -0.97 0.02-0.98 1.53 0 1.51C494.51 377.82 497.22 379.32 499.66 380.82z"/>
    <path class="st6" d="M491.57 382.96c2.96 0.93 5.92 1.64 8.34 3.71 2.23 1.9 4.1 4.17 6.64 5.7 4.8 2.9 11.52 4.02 17.02 2.95 0.94-0.18 0.67-1.57-0.22-1.61 -1.49-0.07-2.99 0.1-4.49 0.07 -1.62-0.04-3.23-0.21-4.82-0.53 -2.79-0.56-5.45-1.55-7.82-3.14 -2.32-1.56-4.07-3.8-6.34-5.44 -2.37-1.7-5.18-2.28-7.91-3.12C491.05 381.26 490.66 382.68 491.57 382.96z"/>
    <path class="st6" d="M525.34 403.67c-3.36 2.27-8.55 1.18-12.15 0.11 -2.51-0.75-4.47-1.42-6.64-2.68 -3.9-2.27-7.75-4.68-11.85-6.57 -0.93-0.43-3.2-1.67-4.1-0.56 -0.61 0.76 0.44 1.84 1.08 1.12 0.03 0 0.08 0.01 0.15 0.04 0.25 0.09 0.52 0.14 0.78 0.22 0.85 0.29 1.67 0.68 2.46 1.09 2.08 1.08 4.11 2.25 6.12 3.46 1.76 1.06 3.5 2.16 5.28 3.18 2.4 1.37 5.12 2.22 7.79 2.87 3.63 0.89 8.97 1.64 12.07-1C527.05 404.36 526.12 403.14 525.34 403.67z"/>
    <path class="st6" d="M641.08 375.24c-0.76 0.23-1.4 0.71-2.13 1 -0.66 0.26-1.35 0.24-2.04 0.21 -1.27-0.06-2.74-0.2-3.81-0.94 -0.72-0.5-1.39 0.67-0.68 1.17 1.24 0.89 2.96 1.09 4.44 1.18 0.78 0.05 1.57 0.07 2.33-0.16 0.86-0.25 1.69-0.71 2.44-1.19C642.25 376.1 641.86 375.01 641.08 375.24z"/>
    <path class="st6" d="M632.19 382.15c2.05 1.2 4.7 1.09 6.99 0.95 1.15-0.07 2.34-0.1 3.46-0.42 1.13-0.33 2.5-1.06 2.91-2.24 0.19-0.55-0.52-1.11-1.01-0.78 -0.45 0.3-0.78 0.75-1.24 1.04 -0.41 0.26-0.86 0.43-1.33 0.55 -0.99 0.26-2.03 0.3-3.05 0.38 -1.97 0.15-4.32 0.36-6.09-0.71 -0.16-0.09-0.31-0.11-0.45-0.08 -0.16-0.54-0.61-0.99-1.3-0.96 -4.52 0.18-9.19 1.74-13.38 3.33 -4.03 1.53-7.78 3.6-11.47 5.81 -6.94 4.14-13.78 8.89-21.83 10.47 -0.16-0.01-0.32 0-0.48 0.03 -0.61 0.12-1.24 0.18-1.83 0.37 -0.79 0.26-1.5 0.71-2.05 1.34 -0.26 0.3-0.44 0.65-0.44 1.06 0 0.37 0.16 0.81 0.44 1.06 0.29 0.26 0.66 0.46 1.06 0.44 0.38-0.02 0.8-0.14 1.06-0.44 0.11-0.12 0.23-0.23 0.36-0.34 0.11-0.07 0.22-0.14 0.34-0.2 0.6-0.2 1.24-0.27 1.86-0.39 0.32-0.06 0.65-0.33 0.84-0.61 7.73-1.52 14.58-5.78 21.26-9.77 3.63-2.16 7.33-4.22 11.25-5.81 2.16-0.87 4.36-1.58 6.62-2.15 2.24-0.57 4.53-0.9 6.78-1.46C631.79 382.56 632.03 382.38 632.19 382.15z"/>
    <path class="st6" d="M663.01 376.65c-4.48 2.56-9.33 4.49-14.08 6.47 -0.74 0.31-0.94 1.07-0.77 1.68 -0.23-0.01-0.47 0.09-0.66 0.34 -0.77 1.06-1.62 1.66-2.87 2.09 -1.18 0.41-2.42 0.71-3.66 0.9 -3.07 0.48-6.58 0.2-9.33-1.32 -0.78-0.43-1.48 0.75-0.7 1.2 3.14 1.79 7.05 2.24 10.59 1.71 1.44-0.22 2.91-0.54 4.25-1.11 1.23-0.52 2.82-1.45 3.06-2.9 0.01-0.05 0-0.09 0-0.13 0.21 0.07 0.46 0.06 0.74-0.05 4.67-1.86 9.48-3.36 13.94-5.73 2.12-1.13 4.08-2.5 6.2-3.64 1.01-0.54 2.05-1.02 3.15-1.35 1.19-0.36 2.45-0.37 3.58-0.86 1.18-0.52 0.64-2.12-0.32-2.48 -2.07-0.77-4.96 0.58-6.8 1.48C667.13 374.01 665.14 375.44 663.01 376.65z"/>
    <path class="st6" d="M640 396.47c1.82-0.26 3.54-0.73 5.21-1.51 1.49-0.7 3.29-1.69 4.22-3.1 0.42-0.63-0.41-1.43-1.03-1.03 -1.31 0.82-2.4 1.84-3.82 2.52 -1.48 0.71-3.13 1.21-4.74 1.49 -3.18 0.55-6.63 0.3-9.6-1.01 -0.86-0.38-1.62 0.88-0.75 1.28C632.77 396.61 636.44 396.97 640 396.47z"/>
    <path class="st6" d="M649.85 396.98c-0.29 1.38-2.24 2.37-3.33 3.09 -1.48 0.97-3.03 1.61-4.76 1.96 -2.64 0.53-6.21 0.97-8.55-0.67 -0.77-0.55-1.45 0.7-0.73 1.25 2.68 2.05 6.85 1.66 9.94 0.99 1.99-0.43 3.78-1.28 5.44-2.45 1.36-0.95 3.1-2.02 3.46-3.76C651.52 396.43 650.05 396.02 649.85 396.98z"/>
    <path class="st6" d="M695.39 372.66c1.48 0.22 2.99 0.29 4.48 0.24 2.4-0.08 5.73-0.12 7.33-2.2 0.5-0.66-0.54-1.37-1.1-0.85 -0.77 0.71-1.76 0.97-2.76 1.15 -1.17 0.21-2.4 0.36-3.59 0.4 -1.26 0.04-2.53-0.04-3.78-0.18 -0.94-0.1-2.1-0.24-2.79-0.96 -0.66-0.69-1.71 0.36-1.05 1.05C692.96 372.19 694.23 372.49 695.39 372.66z"/>
    <path class="st6" d="M686.9 376.72c1.66 0.95 3.6 1.36 5.47 1.68 2.23 0.38 4.44 0.38 6.69 0.16 1.99-0.19 3.87-0.6 5.72-1.4 0.91-0.39 1.75-0.9 2.59-1.42 0.79-0.49 1.45-1.23 2.25-1.68 0.85-0.47 0.1-1.63-0.74-1.27 -0.75 0.32-1.31 0.96-1.99 1.4 -0.71 0.46-1.43 0.94-2.18 1.33 -1.67 0.86-3.62 1.18-5.46 1.48 -2.09 0.34-4.18 0.36-6.27 0.04 -1.8-0.28-3.76-0.62-5.37-1.5C686.81 375.12 686.13 376.29 686.9 376.72z"/>
    <path class="st6" d="M684.19 381.74c4.28 2.35 10.05 2.17 14.76 1.68 4.73-0.5 9.74-1.3 12.86-5.26 0.48-0.61-0.16-1.75-0.92-1.19 -0.8 0.59-1.47 1.33-2.24 1.95 -0.98 0.78-2.09 1.36-3.27 1.76 -2.12 0.72-4.43 0.99-6.64 1.27 -2.33 0.29-4.69 0.37-7.04 0.19 -2.31-0.19-4.73-0.48-6.82-1.58C684.11 380.15 683.42 381.31 684.19 381.74z"/>
    <path class="st6" d="M683.69 386.88c1.08 0.49 2.2 0.61 3.37 0.75 1.54 0.19 3.05 0.35 4.6 0.43 3.24 0.16 6.47-0.06 9.67-0.64 2.78-0.5 5.63-1.09 8.16-2.4 1.22-0.63 2.27-1.45 3.3-2.36 0.75-0.67 1.93-1.34 2.25-2.34 0.28-0.88-1.04-1.43-1.49-0.63 -0.21 0.37-0.67 0.57-1 0.82 -0.47 0.36-0.88 0.78-1.31 1.18 -0.9 0.82-1.93 1.43-3.03 1.94 -2.37 1.1-5 1.76-7.56 2.22 -2.83 0.5-5.65 0.68-8.52 0.69 -1.38 0.01-2.74-0.06-4.11-0.23 -1.2-0.15-2.5-0.15-3.63-0.64C683.58 385.32 682.87 386.51 683.69 386.88z"/>
    <path class="st6" d="M715.42 384.46c0.03 0.44-1.59 1.19-1.93 1.44 -1.1 0.81-2.15 1.7-3.39 2.32 -1.28 0.64-2.72 0.91-4.1 1.24 -1.56 0.37-3.1 0.84-4.67 1.19 -3.04 0.69-6.06 0.93-9.17 0.93 -2.95 0-5.91-0.18-8.74-1.06 -0.92-0.28-1.3 1.13-0.39 1.43 6.45 2.11 13.67 1.38 20.18 0.02 3.3-0.69 6.6-1.46 9.46-3.3 1.02-0.65 2-1.39 2.97-2.12 0.66-0.49 1.55-1.18 1.44-2.1C716.94 383.43 715.35 383.38 715.42 384.46z"/>
    <path class="st6" d="M712.4 392.48c-4.72 2.24-9.6 3.06-14.77 3.5 -5.28 0.45-10.67 0.77-15.88-0.41 -0.88-0.2-1.25 1.13-0.37 1.35 5.45 1.38 11.12 1 16.67 0.55 5.04-0.4 10.74-0.91 15.09-3.74C713.93 393.22 713.24 392.08 712.4 392.48z"/>
    <path class="st6" d="M709.39 397.29c-2.31 0.58-4.42 1.75-6.78 2.25 -2.28 0.49-4.6 0.67-6.92 0.9 -4.77 0.47-9.68 0.76-14.32-0.64 -0.89-0.27-1.26 1.11-0.38 1.39 4.8 1.52 9.77 1.22 14.71 0.77 2.31-0.21 4.63-0.38 6.9-0.83 2.55-0.51 4.75-1.61 7.16-2.5C710.58 398.33 710.27 397.07 709.39 397.29z"/>
    <path class="st6" d="M705.24 405.53c-0.42 0.27-1.17 0.3-1.65 0.38 -0.7 0.12-1.38 0.27-2.08 0.41 -2.05 0.43-4.15 0.51-6.24 0.5 -2.17-0.01-4.31-0.18-6.45-0.57 -1.89-0.34-3.91-0.57-5.56-1.61 -0.77-0.49-1.47 0.72-0.71 1.22 1.72 1.12 3.7 1.52 5.69 1.88 2.39 0.44 4.82 0.65 7.25 0.67 2.29 0.02 4.59-0.19 6.83-0.66 1.21-0.26 2.89-0.17 3.86-1.02C706.81 406.16 705.96 405.05 705.24 405.53z"/>
    <path class="st6" d="M703.42 411.34c-1.52 0.45-2.95 0.9-4.54 1.04 -1.53 0.13-3.08 0.1-4.61 0.02 -1.7-0.1-3.4-0.19-5.08-0.41 -1.43-0.19-3.12-0.35-4.24-1.35 -0.69-0.61-1.69 0.37-1.02 1.02 1.14 1.09 2.62 1.42 4.12 1.77 1.87 0.44 3.82 0.55 5.74 0.7 3.29 0.25 7.31 0.44 10.27-1.28C704.85 412.37 704.32 411.08 703.42 411.34z"/>
    <path class="st6" d="M573.41 380.66c5.79-1.69 11.03-4.38 16.5-6.89 2.87-1.32 5.79-2.52 8.53-4.1 2.83-1.63 5.64-3.32 8.45-4.98 5.73-3.39 11.42-6.91 16.99-10.56 2.66-1.74 5.53-3.17 8.1-5.06 2.26-1.67 4.3-3.7 6.89-4.88 2.29-1.04 4.72-1.93 7.13-2.63 2.52-0.73 5.1-1.31 7.7-0.62 1.23 0.33 2.14-1.59 0.9-2.12 -2.14-0.92-4.4-0.68-6.66-0.35 -2.44 0.36-4.83 1.17-7.12 2.05 -2.46 0.95-4.74 1.99-6.87 3.58 -2.49 1.86-4.84 3.7-7.61 5.13 -11.85 6.15-22.47 14.44-34.59 20.1 -3.27 1.53-6.48 3.17-9.73 4.74 -3.01 1.46-5.98 2.97-9.16 3.97 -0.22-1.52-0.33-3.07-0.55-4.63 -0.01-0.07-0.03-0.13-0.04-0.2 4.99-1.88 10.13-3.3 14.97-5.6 5.21-2.47 10.26-5.31 15.35-8.03 10-5.36 19.63-11.26 28.82-17.93 2.42-1.76 4.84-3.73 7.67-4.78 1.31-0.49 2.65-0.82 3.99-1.19 1.49-0.41 2.92-0.93 4.49-0.86 1.66 0.07 1.6-2.38 0-2.54 -2.49-0.24-5.25 0.67-7.64 1.31 -2.51 0.67-4.8 1.85-6.84 3.45 -4.47 3.52-9.23 6.92-14.2 9.69 -5.09 2.84-10.14 5.73-15.29 8.47 -5.16 2.75-10.13 5.83-15.35 8.48 -5.34 2.71-11 4.56-16.52 6.81 -0.42-1.65-0.96-3.26-1.61-4.84 0.06-0.06 0.12-0.12 0.18-0.2 0.92-1.26 3.34-1.66 4.72-2.12 2.19-0.73 4.25-1.84 6.35-2.79 5.05-2.29 9.95-4.95 14.73-7.75 4.87-2.85 9.55-5.99 14.46-8.79 4.8-2.74 9.77-5.16 14.64-7.79 5.26-2.84 10.7-6.63 16.88-6.81 1.48-0.04 1.49-2.36 0-2.31 -5.5 0.19-10.53 2.74-15.33 5.2 -5.21 2.66-10.39 5.36-15.53 8.14 -10.18 5.5-19.75 12.16-30.16 17.24 -2.49 1.22-5.02 2.46-7.65 3.34 -1.53 0.51-3.18 1.04-4.41 2.1 -0.78-1.65-1.48-3.29-2.13-4.96 1.65-1.11 3.69-1.65 5.53-2.32 2.35-0.84 4.58-1.93 6.86-2.94 5.1-2.27 10.39-4.2 15.28-6.88 4.65-2.55 8.97-5.63 13.52-8.34 4.61-2.75 9.67-4.56 14.17-7.5 2.27-1.48 4.58-2.8 7.03-3.97 2.36-1.13 4.87-2.12 7.52-2.11 1.73 0 1.68-2.51 0-2.65 -4.81-0.41-9.35 2.41-13.45 4.55 -2.33 1.22-4.47 2.77-6.83 3.93 -2.55 1.25-5.23 2.23-7.75 3.55 -4.82 2.52-9.17 5.93-13.87 8.68 -4.9 2.87-10.24 5.02-15.4 7.35 -2.73 1.23-5.41 2.6-8.23 3.63 -1.86 0.68-3.67 1.42-5.31 2.49 -0.32-0.93-0.63-1.87-0.93-2.83 -0.18-0.59-0.34-1.18-0.51-1.76 1.71-0.53 3.24-1.62 4.79-2.47 2.06-1.13 4.24-2.12 6.36-3.15 2.38-1.16 4.77-2.23 7.08-3.51 2.15-1.19 4.26-2.44 6.42-3.62 4.69-2.55 9.52-4.9 14.33-7.22 4.8-2.31 9.5-4.81 14.29-7.14 4.7-2.28 9.56-5.2 14.84-5.82 1.73-0.2 1.79-2.93 0-2.77 -4.74 0.44-8.81 2.49-13.01 4.58 -4.77 2.38-9.67 4.49-14.48 6.79 -4.86 2.32-9.68 4.8-14.42 7.35 -4.55 2.45-8.95 5.14-13.58 7.43 -2.66 1.32-5.25 2.76-7.92 4.05 -1.84 0.89-3.48 2.35-5.43 3 -0.12-0.41-0.23-0.82-0.35-1.23 -0.58-1.97-1.32-3.88-1.89-5.85 -0.67-2.29-4.21-1.33-3.58 0.99 0 0.02 0.01 0.03 0.01 0.05 -0.37 0.29-0.66 0.63-1 0.97 -0.32 0.33-0.64 0.58-1.03 0.85 -0.84 0.59-1.8 1.05-2.7 1.51 -0.85 0.44-1.75 0.74-2.59 1.06 -0.99 0.38-2 0.69-3.02 0.95 -0.85 0.22-1.44 1.21-1.17 2.06 0.29 0.89 1.15 1.39 2.06 1.17 1.06-0.25 2.1-0.57 3.12-0.95 1.13-0.42 2.16-0.98 3.2-1.57 1-0.57 1.85-1.28 2.72-2.01 0.4-0.33 0.77-0.69 1.15-1.03 0.23 0.97 0.46 1.94 0.75 2.89 0.35 1.18 0.75 2.35 1.17 3.51 -0.45 0.42-0.84 0.79-1.36 1.11 -0.39 0.24-0.8 0.47-1.22 0.65 -0.02 0.01-0.15 0.06-0.17 0.07 -0.12 0.05-0.25 0.09-0.37 0.14 -0.16 0.06-0.32 0.13-0.49 0.2 0.01 0-0.19 0.08-0.23 0.1 -1.77 0.74-3.61 1.37-5.29 2.29 -1.31 0.72-0.15 2.69 1.17 2 1.64-0.86 3.64-1.39 5.49-2.18 0.9-0.38 1.81-0.91 2.61-1.46 0.25-0.17 0.49-0.35 0.72-0.54 0.51 1.41 1.09 2.79 1.68 4.17 -0.48 0.27-0.92 0.66-1.34 0.97 -0.67 0.5-1.37 0.98-2.07 1.44 -0.68 0.45-1.41 0.84-2.14 1.21 -0.69 0.35-1.47 0.71-2.11 0.97 -0.62 0.25-1.05 0.82-0.86 1.52 0.16 0.59 0.9 1.11 1.52 0.86 1.66-0.67 3.23-1.47 4.79-2.36 0.73-0.42 1.43-0.86 2.11-1.37 0.38-0.28 0.76-0.57 1.11-0.89 0.6 1.37 1.18 2.74 1.71 4.14 0.16 0.43 0.32 0.86 0.48 1.29 -0.51 0.18-1.01 0.39-1.49 0.64 -0.14 0.07-0.27 0.14-0.41 0.21 -0.06 0.03-0.12 0.06-0.19 0.09 -0.03 0.02-0.25 0.11-0.07 0.03 0.2-0.09-0.07 0.03-0.12 0.05 -0.06 0.03-0.13 0.05-0.19 0.08 -0.14 0.06-0.29 0.12-0.44 0.18 -1.07 0.42-2.15 0.81-3.28 1.01 -0.8 0.14-1.32 1.16-1.08 1.9 0.27 0.84 1.05 1.24 1.9 1.08 1.26-0.25 2.51-0.71 3.66-1.29 0.9-0.46 1.8-0.98 2.52-1.67 0.79 2.3 1.47 4.64 1.76 7.05 0.38 3.13 0.31 6.86 3.23 8.83 1.27 0.86 2.43-0.76 1.91-1.91C573.79 381.9 573.58 381.28 573.41 380.66z"/>
    <path class="st6" d="M358.48 329.27c0.37 0.36 0.81 0.69 1.28 0.9 0.4 0.18 0.78 0.3 1.22 0.34 0.21 0.02 0.42 0 0.62-0.05 0.05-0.01 0.1-0.02 0.15-0.04 0.25-0.1 0.32-0.13 0.22-0.09 0.37-0.14 0.64-0.41 0.7-0.82 0.05-0.38-0.13-0.81-0.48-0.99 -0.03-0.02-0.06-0.03-0.09-0.05 0.05 0.04 0.1 0.07 0.14 0.11 -0.13-0.1-0.21-0.16-0.33-0.24 -0.17-0.11-0.36-0.17-0.54-0.25 0.1 0.04 0.2 0.08 0.3 0.12 -0.13-0.05-0.26-0.1-0.38-0.16 -0.23-0.11-0.46-0.23-0.67-0.38 -0.22-0.19-0.41-0.39-0.59-0.61 -0.38-0.52-0.69-1.08-0.99-1.65 -0.31-0.6-1.21-0.83-1.78-0.47 -0.62 0.4-0.79 1.13-0.47 1.78C357.24 327.63 357.74 328.55 358.48 329.27z"/>
    <path class="st6" d="M356.35 334.23c0.69 0.32 1.37 0.43 2.11 0.56 0.32 0.06 0.62 0.13 0.93 0.23 0.01 0 0.07 0.02 0.12 0.03 0.03 0.01 0.05 0.03 0.08 0.04 0.21 0.11 0.41 0.2 0.63 0.29 0.79 0.33 1.54-0.61 1.34-1.34 -0.25-0.92-1.15-1.44-2.02-1.67 -0.31-0.08-0.63-0.14-0.95-0.2 -0.17-0.03-0.34-0.07-0.51-0.11 -0.07-0.02-0.14-0.04-0.2-0.06 -0.01 0-0.03-0.01-0.06-0.02 0 0-0.14-0.06-0.17-0.07 -0.08-0.04-0.17-0.09-0.25-0.14 -0.07-0.04-0.13-0.09-0.19-0.13 -0.04-0.03-0.27-0.22-0.13-0.09 -0.03-0.03-0.06-0.06-0.08-0.07 -0.07-0.06-0.14-0.13-0.21-0.19 -0.12-0.12-0.24-0.25-0.36-0.38 -0.47-0.54-0.89-1.13-1.36-1.67 -0.47-0.53-1.43-0.51-1.9 0 -0.51 0.56-0.5 1.34 0 1.9C354.16 332.23 354.97 333.6 356.35 334.23z"/>
    <path class="st6" d="M351.05 336.14c0.44 0.48 1.04 0.88 1.66 1.08 0.3 0.1 0.61 0.13 0.92 0.17 0.12 0.01 0.23 0.03 0.35 0.04 0.01 0 0.02 0 0.03 0 0.23 0.05 0.47 0.09 0.7 0.16 0.07 0.02 0.15 0.05 0.22 0.08 0.02 0.01 0.03 0.01 0.05 0.03 0.14 0.07 0.27 0.17 0.4 0.25 0.02 0.02 0.04 0.04 0.06 0.05 0.06 0.06 0.13 0.11 0.19 0.17 0.04 0.04 0.08 0.09 0.12 0.13 0.02 0.03 0.03 0.06 0.05 0.08 0.04 0.07 0.07 0.13 0.1 0.2 0 0 0 0 0 0 0 0.01 0.01 0.02 0.01 0.03 0.06 0.18 0.11 0.36 0.17 0.53 0.04 0.11 0.06 0.21 0.1 0.32 0.05 0.13 0.1 0.25 0.16 0.38 0.23 0.29 0.26 0.33 0.09 0.13 0.45 0.88 1.9 0.67 2.12-0.28 -0.12 0.24-0.1 0.19 0.05-0.15 0.03-0.14 0.04-0.28 0.05-0.41 0-0.11-0.01-0.22-0.02-0.33 -0.03-0.28-0.07-0.55-0.15-0.82 -0.13-0.45-0.34-0.87-0.56-1.28 -0.52-0.94-1.38-1.54-2.36-1.93 -0.48-0.19-0.99-0.29-1.5-0.34 -0.04-0.01-0.09-0.01-0.13-0.02 -0.12-0.02-0.23-0.05-0.35-0.08 -0.1-0.03-0.29-0.05-0.37-0.12 0.05 0.02 0.11 0.04 0.16 0.06 -0.06-0.03-0.13-0.06-0.19-0.1 -0.07-0.04-0.14-0.1-0.21-0.14 -0.02-0.02-0.05-0.05-0.07-0.07 -0.06-0.14-0.09-0.15-0.08-0.11 -0.02-0.03-0.04-0.06-0.05-0.08 -0.02-0.03-0.03-0.04-0.03-0.06 -0.02-0.05-0.04-0.11-0.06-0.16 -0.08-0.22-0.14-0.44-0.21-0.66 -0.22-0.67-0.95-1.17-1.66-0.94 -0.7 0.23-1.14 0.93-0.94 1.66C350.13 334.54 350.38 335.42 351.05 336.14z"/>
    <path class="st6" d="M349.52 343.24c0.42 0.17 0.86 0.3 1.31 0.39 0.35 0.07 0.71 0.12 1.06 0.16 0.11 0.01 0.23 0.02 0.34 0.03 0.07 0.01 0.14 0.01 0.21 0.02 0.05 0.01 0.07 0.01 0.08 0.01 0.06 0.02 0.11 0.04 0.13 0.04 0.04 0.01 0.1 0.04 0.15 0.06 0.25 0.13 0.49 0.28 0.73 0.44 0.71 0.46 1.36 0.93 2.24 0.91 0.84-0.02 1.25-0.87 0.91-1.58 -0.31-0.64-0.83-1.07-1.36-1.51 -0.55-0.47-1.1-0.84-1.79-1.08 -0.44-0.15-0.92-0.18-1.38-0.23 0 0-0.21-0.03-0.26-0.04 -0.11-0.02-0.22-0.04-0.33-0.07 -0.22-0.05-0.43-0.11-0.64-0.18 -0.21-0.07-0.41-0.15-0.62-0.22 -0.03-0.01-0.05-0.02-0.07-0.02 -0.1-0.05-0.21-0.09-0.31-0.14 -0.2-0.1-0.41-0.21-0.6-0.33 -0.1-0.06-0.19-0.13-0.28-0.19 -0.02-0.02-0.04-0.03-0.07-0.05 -0.14-0.16-0.33-0.29-0.49-0.44 -0.07-0.07-0.14-0.17-0.22-0.23 -0.01-0.02-0.03-0.04-0.04-0.06 -0.05-0.08-0.1-0.21-0.16-0.27 -0.01-0.03-0.02-0.05-0.02-0.08 0-0.02-0.03-0.13-0.05-0.2 0-0.08-0.02-0.24-0.02-0.27 -0.01-0.7-0.59-1.3-1.3-1.3 -0.73 0-1.26 0.6-1.3 1.3C345.25 340.68 347.35 342.39 349.52 343.24z"/>
    <path class="st6" d="M346.78 347.84c1 0.64 2.01 1.2 3.07 1.75 0.31 0.16 0.61 0.33 0.91 0.52 0.12 0.07 0.23 0.15 0.34 0.23 0.05 0.04 0.11 0.08 0.16 0.12 0.01 0.01 0.04 0.03 0.1 0.08 0.22 0.19 0.43 0.4 0.63 0.62 0.09 0.11 0.1 0.12 0.02 0.03 0.08 0.12 0.17 0.23 0.27 0.33 -0.1-0.13 0.18 0.25 0.27 0.33 0.52 0.53 1.65 0.34 1.79-0.47 0.26-1.62-1.14-2.83-2.32-3.7 -0.97-0.72-2-1.36-3.03-1.99 -0.51-0.31-1.03-0.59-1.53-0.91 -0.26-0.17-0.52-0.34-0.78-0.52 -0.11-0.08-0.22-0.16-0.33-0.23 -0.03-0.02-0.25-0.19-0.3-0.22 -0.42-0.34-0.83-0.71-1.19-1.12 -0.02-0.04-0.18-0.23-0.2-0.27 -0.04-0.07-0.08-0.15-0.12-0.22 0-0.02-0.09-0.27-0.1-0.32 -0.01-0.04-0.02-0.08-0.02-0.12 0-0.02 0-0.05-0.01-0.1 -0.04-0.75-0.61-1.38-1.38-1.38 -0.74 0-1.4 0.63-1.38 1.38 0.04 1.44 0.75 2.8 1.76 3.81C344.38 346.44 345.62 347.11 346.78 347.84z"/>
    <path class="st6" d="M338.33 347.36c0.43 0.5 0.85 1.03 1.31 1.51 1.01 1.06 2.25 1.85 3.47 2.63 1.17 0.75 2.34 1.55 3.55 2.23 1.31 0.74 3.18 1.58 4.7 1.06 1.1-0.38 1.03-1.77 0-2.17 -0.63-0.24-1.31-0.3-1.94-0.55 -0.57-0.23-1.12-0.54-1.64-0.85 -1.06-0.63-2.13-1.26-3.18-1.92 -0.98-0.62-1.9-1.33-2.79-2.08 -0.42-0.35-0.92-0.7-1.22-1.16 -0.3-0.45-0.53-1-0.68-1.36 -0.28-0.71-0.95-1.21-1.75-0.99 -0.68 0.19-1.28 1.03-0.99 1.75C337.45 346.18 337.82 346.76 338.33 347.36z"/>
    <path class="st6" d="M347.34 356.26c-0.54-0.63-1.11-1.22-1.75-1.74 -1.34-1.09-2.81-1.69-4.41-2.27 -1.25-0.45-2.33-0.88-3.47-1.59 -0.58-0.36-0.98-0.62-1.42-1.06 -0.29-0.29-0.26-0.27-0.45-0.59 -0.03-0.05-0.05-0.1-0.08-0.15 0-0.01 0-0.01-0.01-0.03 -0.05-0.16-0.09-0.31-0.11-0.47 -0.26-1.55-2.97-1.2-2.76 0.37 0.46 3.44 4 4.92 6.81 6.04 1.42 0.56 2.83 1.02 4.06 1.95 0.67 0.51 1.23 1.14 1.85 1.71 0.7 0.64 1.59 1.51 2.62 1.41 0.89-0.09 1.74-1.32 0.84-2.02C348.42 357.32 347.87 356.88 347.34 356.26z"/>
    <path class="st6" d="M345.01 360.68c-0.5-0.6-0.85-1.3-1.45-1.81 -1.32-1.15-3.05-1.65-4.63-2.35 -0.9-0.39-1.79-0.8-2.72-1.12 -0.69-0.24-1.42-0.39-2.09-0.7 -1.08-0.49-2.45-1.31-2.77-2.54 -0.44-1.71-3.05-0.99-2.64 0.73 0.39 1.64 1.67 2.86 3.13 3.62 0.71 0.37 1.46 0.66 2.23 0.9 1 0.31 1.89 0.71 2.81 1.2 0.89 0.47 1.79 0.89 2.73 1.27 0.76 0.31 1.58 0.62 2.24 1.12 1.25 0.94 2.32 2.92 4.13 2.74 0.82-0.08 1.48-1.13 0.74-1.78C346.17 361.46 345.49 361.25 345.01 360.68z"/>
    <path class="st6" d="M344.49 366.72c-0.83-0.15-1.39-0.85-1.97-1.41 -0.8-0.77-1.57-1.43-2.6-1.88 -1.24-0.54-2.57-0.73-3.86-1.12 -0.69-0.21-1.37-0.46-2.05-0.7 -1.73-0.61-3.46-1.41-4.94-2.51 -1.11-0.82-2.35-1.94-2.23-3.4 0.14-1.65-2.41-1.63-2.57 0 -0.4 4.24 4.97 6.75 8.16 8.12 0.83 0.35 1.65 0.69 2.52 0.96 1.31 0.41 2.71 0.52 3.99 1 1.08 0.4 1.8 1.17 2.68 1.86 0.82 0.63 1.77 1.46 2.88 1.15C345.45 368.53 345.58 366.91 344.49 366.72z"/>
    <path class="st6" d="M341.09 371.73c-1.01-0.2-1.53-0.22-2.26-1.01 -0.68-0.72-1.21-1.47-2.08-2 -1.76-1.06-3.96-1.15-5.87-1.85 -3.41-1.24-6.73-2.95-8.47-6.27 -0.78-1.48-2.99-0.17-2.23 1.31 1.94 3.78 5.52 5.85 9.36 7.35 1.07 0.41 2.16 0.74 3.27 1.01 1.1 0.27 2.12 0.43 3.09 1.05 1.63 1.03 2.89 3.38 5.2 2.62C342.08 373.62 342.27 371.96 341.09 371.73z"/>
    <path class="st6" d="M337.5 377.89c-0.9-0.49-1.71-0.96-2.42-1.72 -0.7-0.76-1.33-1.56-2.21-2.13 -1.61-1.04-3.53-1.19-5.37-1.49 -3.79-0.62-7.4-2.98-8.32-6.92 -0.4-1.7-3.03-0.98-2.62 0.72 0.99 4.09 5.1 7.64 9.14 8.57 1.92 0.44 4.11 0.36 5.84 1.41 0.89 0.54 1.54 1.41 2.36 2.05 0.96 0.76 1.87 1.28 3.11 1.36C337.98 379.79 338.35 378.34 337.5 377.89z"/>
    <path class="st6" d="M331.18 380.32c-0.87-0.72-1.89-1.28-2.95-1.63 -1.06-0.35-2.14-0.28-3.22-0.42 -3.6-0.46-7.51-3.35-8.63-6.87 -0.54-1.7-3.22-0.97-2.68 0.74 1.32 4.17 5.25 7.39 9.4 8.53 2.19 0.6 4.44 0.18 6.4 1.57 1.55 1.1 2.14 3.56 4.16 4.01 0.91 0.2 1.9-1.05 1.01-1.74C333.2 383.36 332.6 381.5 331.18 380.32z"/>
    <path class="st6" d="M330.92 389.16c-1.5-0.85-2.03-2.51-3.22-3.71 -1.49-1.5-3.65-2.53-5.53-3.46 -1.73-0.86-3.53-1.53-5.3-2.28 -1.05-0.44-2.76-1.1-3.11-2.31 -0.47-1.65-3.01-0.96-2.58 0.71 0.45 1.73 1.99 2.85 3.51 3.63 1.77 0.91 3.67 1.53 5.45 2.42 1.11 0.56 2.17 1.21 3.25 1.83 0.88 0.5 1.91 1.02 2.59 1.79 1.25 1.44 2.08 3.62 4.38 3.46C331.42 391.18 331.94 389.74 330.92 389.16z"/>
    <path class="st6" d="M327.1 392.32c-0.66-0.77-1.29-1.56-2.03-2.26 -1.58-1.48-3.55-2.13-5.57-2.8 -3.38-1.12-7.26-2.15-8.57-5.87 -0.53-1.52-2.93-0.9-2.44 0.67 1.35 4.32 5.1 6.27 9.11 7.63 1.86 0.63 3.93 1.08 5.44 2.4 1.62 1.41 2.82 3.61 4.99 4.24 1.13 0.33 1.67-1.02 1.05-1.8C328.46 393.76 327.75 393.07 327.1 392.32z"/>
    <path class="st6" d="M326.46 402.17c-0.31-0.17-0.64-0.21-0.99-0.24 -0.07-0.01-0.19-0.02-0.2-0.02 -0.09-0.02-0.18-0.03-0.26-0.06 -0.09-0.02-0.17-0.05-0.26-0.08 -0.03-0.01-0.05-0.02-0.08-0.03 0 0 0 0 0 0 -0.18-0.1-0.36-0.19-0.53-0.31 -0.06-0.04-0.14-0.1-0.15-0.11 -0.06-0.05-0.11-0.09-0.17-0.14 -0.16-0.14-0.31-0.29-0.46-0.45 -0.14-0.15-0.27-0.3-0.4-0.46 -0.06-0.08-0.12-0.15-0.18-0.23 -0.04-0.05-0.08-0.11-0.12-0.16 -1.09-1.47-2.13-3.19-3.81-4.07 -1.13-0.59-2.35-0.69-3.58-0.41 -0.66 0.15-1.04 0.91-0.87 1.53 0.19 0.68 0.87 1.01 1.53 0.87 0.04-0.01 0.2-0.04 0.27-0.05 0.06 0 0.16-0.01 0.18-0.01 0.11 0 0.23 0 0.34 0 0.04 0 0.08 0.01 0.11 0.01 0.18 0.04 0.35 0.08 0.53 0.13 0.02 0.01 0.04 0.02 0.07 0.02 0.1 0.06 0.2 0.1 0.3 0.16 0.08 0.04 0.15 0.09 0.22 0.14 0.04 0.03 0.09 0.06 0.12 0.09 0.14 0.12 0.28 0.24 0.41 0.37 0.3 0.3 0.57 0.62 0.84 0.95 0.03 0.04 0.04 0.05 0.05 0.06 0.01 0.01 0 0.01 0.02 0.03 0.06 0.08 0.12 0.16 0.18 0.23 0.14 0.18 0.28 0.36 0.42 0.55 0.32 0.42 0.64 0.84 0.98 1.25 0.57 0.69 1.22 1.34 1.99 1.82 0.86 0.53 2.59 1.16 3.51 0.47C327.06 403.57 327.23 402.59 326.46 402.17z"/>
    <path class="st6" d="M497.03 240.33c2.08-0.7 4.12-1.69 5.9-2.98 1.86-1.35 3.49-2.99 5.42-4.24 2.07-1.34 4.27-2.47 6.39-3.73 1.79-1.07 3.94-1.77 5.45-3.25 1.14-1.11-0.37-3.2-1.74-2.25 -3.6 2.51-7.69 4.31-11.27 6.87 -1.71 1.22-3.41 2.47-5.08 3.75 -1.78 1.37-3.57 2.78-5.71 3.53C494.96 238.53 495.56 240.82 497.03 240.33z"/>
    <path class="st6" d="M478.72 258.19c3.07-2.46 8.77-4.96 12.04-7.11 3.47-2.27 6.74-4.78 10.38-6.8 3.85-2.13 7.64-4.37 11.46-6.55 1.87-1.07 3.82-2.01 5.68-3.09 1.68-0.98 3.23-2.17 4.98-3.04 1.47-0.73 0.44-3.1-1.11-2.64 -1.87 0.56-3.58 1.48-5.19 2.58 -1.77 1.21-3.57 2.31-5.44 3.37 -4.03 2.31-8.05 4.64-11.94 7.18 -1.82 1.19-3.67 2.3-5.43 3.58 -1.71 1.24-3.35 2.58-5.14 3.71 -3.3 2.09-6.87 3.71-9.9 6.21C478 256.52 477.6 259.09 478.72 258.19z"/>
    <path class="st6" d="M465.8 271.99c1.99-0.77 4-1.55 5.92-2.48 1.93-0.94 3.76-2.15 5.56-3.33 3.61-2.36 7.2-4.79 11.04-6.78 2.02-1.05 4.14-1.92 6.17-2.96 2.08-1.06 4.17-2.07 6.24-3.15 4.15-2.16 8.17-4.54 12.18-6.94 2.28-1.36 4.62-2.62 6.89-4 1.92-1.16 4.48-1.76 5.9-3.58 0.79-1.01 0.11-3.18-1.47-2.52 -1.85 0.77-3.6 1.82-5.33 2.84 -2.01 1.18-4.06 2.24-6.09 3.36 -4.01 2.22-7.99 4.61-11.85 7.08 -3.95 2.52-8.06 4.61-12.27 6.65 -3.84 1.86-7.45 4.02-11.14 6.15 -2.12 1.22-4.23 2.47-6.36 3.67 -2.13 1.21-4.16 2.52-6.43 3.47C463.33 270.08 464.35 272.55 465.8 271.99z"/>
    <path class="st6" d="M444.26 293.61c4.76-3.61 10.11-5.87 15.49-8.38 5.78-2.69 11.39-5.87 16.9-9.07 11.43-6.65 22.81-13.38 34.54-19.51 2.88-1.5 5.79-2.94 8.74-4.31 2.9-1.35 5.59-2.7 8-4.84 1.65-1.47-0.72-3.69-2.38-2.38 -4.31 3.42-9.82 5.1-14.54 7.85 -5.71 3.33-11.61 6.35-17.42 9.5 -11.3 6.12-22.12 13.08-33.52 19.04 -5.8 3.03-11.85 5.93-17.11 9.86C441.64 292.36 442.94 294.61 444.26 293.61z"/>
    <path class="st6" d="M416.03 316.42c7.05-4.15 17.03-7.11 24.39-10.62 3.65-1.74 6.87-3.93 10.04-6.4 1.53-1.19 3.08-2.38 4.78-3.31 1.85-1.01 3.77-1.93 5.65-2.89 3.96-2.04 8.03-3.86 12.01-5.85 4-2 7.92-4.14 11.9-6.19 3.83-1.98 7.72-3.85 11.45-6.01 3.71-2.15 7.34-4.44 11.13-6.46 4.3-2.3 8.65-4.57 13.01-6.75 2.99-1.5 6.76-2.1 9.08-4.68 1.29-1.44-0.76-3.52-2.13-2.13 -1 1-2.46 1.59-3.74 2.13 -1.41 0.6-2.85 1.14-4.23 1.81 -3.81 1.82-7.58 3.8-11.35 5.72 -3.82 1.94-7.44 4.27-11.14 6.43 -3.7 2.16-7.52 4.06-11.31 6.05 -7.77 4.07-15.64 7.94-23.44 11.96 -3.67 1.89-7.69 3.49-11.07 5.89 -3.17 2.26-5.98 4.82-9.44 6.66 -8.1 4.32-16.97 6.98-24.9 11.67C415.29 314.26 414.59 317.27 416.03 316.42z"/>
    <path class="st6" d="M398.23 339.02c2.33-1.14 4.51-2.56 6.83-3.74 4.77-2.44 9.48-4.95 14.16-7.55 4.67-2.59 9.38-5.12 14.01-7.78 4.66-2.68 9.14-5.68 13.85-8.27 9.26-5.1 18.9-9.38 28.39-14.02 9.59-4.69 18.68-10.35 28.3-14.99 5.3-2.55 10.28-5.6 15.32-8.62 1.15-0.69 2.25-1.42 3.31-2.25 0.97-0.76 1.9-1.58 3.03-2.11 2.03-0.94 3.6-1.34 5.01-3.23 0.97-1.3-0.73-3.02-1.77-1.75 -1.18 1.43-3.34 1.57-4.94 2.3 -2.11 0.96-3.72 2.7-5.65 3.94 -4.34 2.79-8.73 5.52-13.34 7.84 -4.77 2.4-9.59 4.69-14.3 7.23 -4.56 2.46-9.07 4.99-13.7 7.31 -9.42 4.74-19.23 8.74-28.43 13.92 -4.6 2.59-9.04 5.41-13.54 8.16 -4.56 2.8-9.28 5.31-13.95 7.91 -5.18 2.88-10.29 5.88-15.56 8.58 -2.6 1.34-5.13 2.91-7.94 3.79 -1.25 0.39-2.56 0.56-3.8 0.96 -1.48 0.47-2.92 1.04-4.35 1.65 -1.04 0.44-1.27 1.98-0.75 2.87 0.63 1.07-2.67 2.46-1.63 2C389.1 342.18 395.95 340.13 398.23 339.02z"/>
    <path class="st6" d="M378.34 358.47c5.24-1.92 9.89-4.95 14.85-7.46 5.08-2.57 10.31-4.83 15.21-7.74 2.3-1.36 4.47-2.95 6.69-4.43 2.34-1.57 4.74-2.88 7.28-4.09 5.14-2.45 10.03-5.37 15.12-7.91 2.56-1.28 5.14-2.52 7.68-3.84 2.57-1.34 5.03-2.88 7.55-4.31 5.08-2.86 10.26-5.47 15.24-8.5 9.79-5.94 20.3-10.63 30.44-15.92 5.6-2.92 10.89-6.32 16.42-9.35 2.84-1.56 5.81-2.84 8.66-4.37 1.25-0.67 2.46-1.4 3.78-1.93 1.22-0.49 2-0.93 3.08-1.7 1.44-1.03 0.59-3.42-0.91-2.4 -0.91 0.62-1.93 0.91-2.95 1.28 -1.21 0.44-2.33 1.03-3.47 1.64 -2.52 1.35-5.08 2.62-7.6 3.96 -4.86 2.56-9.41 5.66-14.3 8.18 -10.27 5.28-20.88 9.81-30.95 15.49 -5 2.82-9.85 5.89-14.89 8.66 -2.47 1.36-4.98 2.67-7.38 4.15 -2.47 1.52-4.94 2.95-7.56 4.2 -2.59 1.23-5.22 2.4-7.75 3.76 -2.48 1.33-4.93 2.69-7.47 3.91 -2.52 1.22-5.05 2.38-7.49 3.75 -2.4 1.34-4.67 2.86-6.94 4.4 -5.19 3.5-10.89 6.15-16.42 9.05 -2.76 1.44-5.48 2.94-8.17 4.51 -2.76 1.61-5.5 3.21-8.49 4.36C375.97 356.44 376.66 359.09 378.34 358.47z"/>
    <path class="st6" d="M373.29 369.8c2.76-1.1 5.45-2.32 8.06-3.74 2.51-1.37 4.87-2.98 7.36-4.38 5.15-2.9 10.49-5.42 15.5-8.57 9.83-6.18 19.85-12.64 30.73-16.82 5.52-2.12 10.8-4.58 16.06-7.29 5.43-2.8 11.2-4.91 16.76-7.42 5.3-2.39 10.51-4.91 15.35-8.15 4.65-3.12 9-6.67 13.6-9.86 5.41-3.75 11.26-6.69 17.32-9.24 3.09-1.3 6.17-2.51 9.05-4.24 1.35-0.82 2.7-1.63 4.14-2.29 1.42-0.65 1.96-0.97 3.16-2 1.21-1.04 0.41-3.2-0.93-2.43 -1.15 0.67-2.43 1.09-3.66 1.58 -1.34 0.54-2.58 1.22-3.83 1.94 -2.57 1.49-5.18 2.69-7.91 3.84 -5.44 2.3-10.87 4.55-15.89 7.67 -4.69 2.92-9.06 6.3-13.53 9.54 -2.2 1.59-4.43 3.17-6.72 4.64 -2.54 1.64-5.23 2.94-7.93 4.3 -5.39 2.71-10.99 4.94-16.5 7.4 -2.69 1.2-5.35 2.51-7.94 3.91 -2.62 1.42-5.18 2.89-7.97 3.98 -5.39 2.11-10.76 4.12-15.87 6.86 -5.08 2.72-9.91 5.79-14.78 8.86 -2.8 1.76-5.54 3.67-8.39 5.35 -2.75 1.62-5.66 2.92-8.49 4.39 -5.94 3.1-11.1 7.44-17.34 9.96C371.35 368.15 371.92 370.34 373.29 369.8z"/>
    <path class="st6" d="M370.44 380.21c4.53-3.34 9.54-5.9 14.44-8.64 5.14-2.88 10.1-6.07 15.21-9 5.22-2.99 10.67-5.53 16.04-8.24 5.43-2.75 10.78-5.66 16.17-8.5 5.36-2.83 10.75-5.73 16.29-8.21 5.48-2.45 11.23-4.27 16.86-6.33 5.12-1.88 10.46-3.4 15.32-5.91 5.25-2.7 10.31-5.92 15.3-9.07 5.76-3.63 11.35-7.5 17.03-11.25 2.71-1.79 5.48-3.49 8.29-5.12 2.96-1.71 6.04-3.2 8.97-4.96 1.47-0.88 0.19-2.92-1.32-2.25 -5.35 2.38-10.5 5.47-15.48 8.53 -5.11 3.13-9.9 6.76-14.96 9.97 -5.1 3.23-10.31 6.29-15.39 9.57 -4.74 3.06-9.91 4.72-15.21 6.52 -5.56 1.89-11.16 3.81-16.6 6.04 -5.55 2.27-10.9 5.14-16.2 7.92 -5.39 2.83-10.74 5.73-16.12 8.58 -5.34 2.83-10.75 5.53-16.07 8.38 -5.94 3.19-11.68 6.73-17.49 10.13 -5.46 3.19-11.2 5.95-16.32 9.68C367.9 379 369.15 381.16 370.44 380.21z"/>
    <path class="st6" d="M495.69 322.64c6.26-3.44 12.8-6.34 18.92-10.02 3.08-1.86 6.02-3.81 9.31-5.31 1.52-0.7 3.11-1.23 4.61-1.98 1.43-0.71 2.88-1.69 4.5-1.89 1.93-0.24 1-3.29-1-3.09 -2.95 0.28-4.37 2.01-7.03 3.14 -2.89 1.22-5.76 2.48-8.45 4.09 -2.75 1.65-5.42 3.4-8.25 4.92 -2.8 1.51-5.64 2.91-8.47 4.36 -5.79 2.96-11.39 6.2-16.92 9.61 -5.37 3.32-10.74 6.73-16.37 9.59 -5.85 2.97-11.79 5.78-17.68 8.67 -5.98 2.94-11.97 5.81-18.11 8.41 -5.8 2.45-11.1 5.82-16.63 8.78 -5.66 3.03-11.36 6.03-16.72 9.59 -3.04 2.02-5.97 4.18-9.04 6.15 -3.09 1.99-6.21 3.94-9.33 5.87 -3.01 1.86-6.09 3.52-9.24 5.12 -2.87 1.46-5.59 3.41-8.67 4.4 -1.59 0.51-0.92 3 0.69 2.51 2.69-0.81 5.09-2.31 7.55-3.61 2.68-1.41 5.45-2.63 8.08-4.17 5.7-3.34 11.3-6.82 16.81-10.48 5.27-3.5 10.54-6.9 16.13-9.87 5.57-2.95 11.03-6.08 16.57-9.08 5.75-3.11 11.92-5.49 17.84-8.28 5.97-2.82 11.82-5.88 17.76-8.76 5.73-2.78 11.35-5.67 16.81-8.95C484.79 329.1 490.13 325.69 495.69 322.64z"/>
    <path class="st6" d="M447.67 355.46c3.42-1.76 7.19-3.23 10.37-5.39 1.12-0.76 0.45-2.91-0.99-2.35 -3.55 1.39-6.96 3.42-10.32 5.2 -3.34 1.77-6.57 3.72-9.94 5.44 -6.24 3.18-12.71 6.19-18.07 10.78 -1.18 1.01 0.53 2.69 1.7 1.7 5.34-4.48 11.8-7.05 17.91-10.27C441.48 358.94 444.51 357.09 447.67 355.46z"/>
    <path class="st6" d="M493.12 333.49c4.84-2.23 9.64-4.55 14.51-6.72 4.84-2.16 9.62-4.42 14.31-6.89 2.59-1.37 5.05-2.88 7.55-4.4 1.21-0.73 2.39-1.38 3.71-1.89 1.2-0.47 2.38-0.93 3.44-1.69 1.2-0.86 0.09-2.85-1.18-2.02 -1.9 1.25-4.18 1.76-6.14 2.92 -2.31 1.37-4.62 2.75-6.97 4.04 -4.58 2.51-9.4 4.55-14.16 6.7 -9.9 4.46-19.79 8.96-29.45 13.92 -5.21 2.68-10.48 5.3-15.41 8.48 -1.26 0.81-0.1 2.84 1.18 2.02 4.44-2.81 9.18-5.07 13.88-7.41C483.25 338.13 488.16 335.78 493.12 333.49z"/>
    <path class="st6" d="M520.95 327.07c-1.37 0.51-0.79 2.73 0.61 2.22 3.66-1.31 7.02-3.22 10.23-5.4 3.13-2.13 6.23-4.34 9.25-6.62 1.01-0.77 0.17-2.29-1.01-1.72 -3.31 1.6-6.22 3.94-9.24 6.01C527.7 323.69 524.49 325.74 520.95 327.07z"/>
    <path class="st6" d="M546.58 325.52c0.64-1.19-0.88-2.41-1.88-1.45 -1.03 0.99-2.29 1.52-3.59 2.07 -1.54 0.65-3.08 1.27-4.56 2.04 -3.24 1.67-6.33 3.52-9.91 4.4 -1.76 0.43-1.01 3.11 0.75 2.71 3.87-0.88 7.24-2.94 10.76-4.7C540.98 329.18 544.94 328.56 546.58 325.52z"/>
    <path class="st6" d="M548.51 333.3c1.09-0.85 2.29-1.73 3.13-2.84 0.92-1.21-0.9-3-2.11-2.11 -1.05 0.77-1.96 1.74-2.99 2.56 -1.07 0.85-2.17 1.71-3.3 2.48 -2.19 1.49-4.56 2.86-7.09 3.67 -1.76 0.57-1 3.36 0.77 2.78 2.77-0.91 5.34-2.38 7.8-3.93C546.02 335.08 547.29 334.25 548.51 333.3z"/>
    <path class="st6" d="M552.33 339.72c0.49-0.32 1-0.62 1.51-0.89 0.54-0.28 1.25-0.48 1.64-0.97 0.54-0.67 0.49-1.98-0.57-2.16 -1.28-0.22-2.61 0.67-3.65 1.36 -0.96 0.65-1.86 1.39-2.81 2.06 -1.91 1.34-3.75 2.85-6.02 3.54 -1.66 0.51-0.96 3.1 0.72 2.61 2.42-0.7 4.67-2.02 6.59-3.63C550.56 340.95 551.42 340.3 552.33 339.72z"/>
    <path class="st6" d="M609.59 281.07c1.11-0.32 2.2-0.69 3.28-1.11 1.12-0.45 2.28-0.8 3.4-1.26 1.12-0.46 2.24-0.88 3.33-1.43 0.51-0.26 1.02-0.54 1.53-0.8 0.58-0.3 1.16-0.57 1.63-1.05 0.51-0.52 0.57-1.36 0.12-1.93 -0.49-0.62-1.2-0.68-1.9-0.38 -0.48 0.21-0.87 0.57-1.3 0.87 -0.45 0.31-0.92 0.56-1.41 0.81 -0.98 0.51-1.98 1.04-3.01 1.45 -1.06 0.43-2.1 0.85-3.2 1.16 -1.08 0.3-2.15 0.6-3.23 0.9C607.03 278.79 607.8 281.59 609.59 281.07z"/>
    <path class="st6" d="M603.62 291.06c3.28-1.76 6.79-3.15 10.2-4.64 1.72-0.75 3.38-1.62 5.03-2.5 1.35-0.72 2.65-0.91 3.67-2.1 1.17-1.36 0.23-3.68-1.44-2.78 -1.39 0.75-2.81 1.45-4.11 2.36 -1.49 1.05-3.12 1.85-4.79 2.57 -3.39 1.46-6.65 3.09-9.92 4.78C600.75 289.54 602.1 291.88 603.62 291.06z"/>
    <path class="st6" d="M594.59 302.59c5.27-1.18 9.93-3.65 14.61-6.25 2.42-1.35 4.92-2.56 7.36-3.88 1.03-0.56 2.04-1.16 3.09-1.69 0.99-0.5 1.29-0.5 2-1.39 1.18-1.49 0.08-3.99-1.38-2.63 -1.6 1.49-3.53 2.21-5.44 3.21 -2.39 1.25-4.93 2.22-7.32 3.47 -4.44 2.33-8.71 5.32-13.63 6.53C592.16 300.39 592.89 302.97 594.59 302.59z"/>
    <path class="st6" d="M582.87 315.17c3.44-1.48 7.05-2.31 10.42-3.98 3.62-1.79 7.27-3.46 10.93-5.15 3.51-1.62 6.86-3.54 10.26-5.37 1.5-0.81 3.06-1.53 4.52-2.41 1.44-0.87 2.43-2.01 3.32-3.4 0.76-1.18-0.86-2.17-1.81-1.4 -1.15 0.93-2.82 1.53-4.12 2.23 -1.5 0.8-3.02 1.55-4.52 2.35 -3.33 1.8-6.56 3.75-9.88 5.56 -3.33 1.81-6.77 3.36-10.04 5.3 -3.22 1.91-6.86 2.75-10.25 4.27C580.35 313.78 581.53 315.74 582.87 315.17z"/>
    <path class="st6" d="M571.86 330.76c1.63-0.8 3.28-1.28 5.01-1.82 1.78-0.55 3.54-1.3 5.26-2.02 3.53-1.47 6.96-3.54 10.21-5.54 3.34-2.06 6.54-4.31 9.93-6.28 3.38-1.96 6.95-3.52 10.53-5.07 4.1-1.77 7.9-4.1 12.5-4.27 1.64-0.06 0.62-2.42-1-2.53 -3.99-0.29-6.45 1.25-10.02 2.85 -3.69 1.66-7.39 3.46-10.94 5.41 -7.11 3.89-13.78 8.73-21.28 11.89 -1.97 0.83-3.99 1.15-6.03 1.72 -2.06 0.57-4.2 1.39-6.08 2.41C567.83 328.69 569.71 331.81 571.86 330.76z"/>
    <path class="st6" d="M565.42 338.81c4.44-0.44 8.57-2.01 12.81-3.3 4.54-1.38 8.75-3.49 12.9-5.75 4.09-2.24 7.89-4.92 11.93-7.22 4.03-2.29 8.18-4.28 12.28-6.44 3.75-1.98 8.33-3.9 12.63-3.99 2.22-0.04 2.23-3.48 0-3.45 -3.93 0.06-7.66 1.75-11.19 3.32 -1.99 0.89-4.03 1.76-5.92 2.86 -1.99 1.16-3.94 2.41-5.91 3.61 -7.95 4.87-16.18 9.73-24.92 13.08 -2.4 0.92-4.88 1.64-7.29 2.56 -2.36 0.9-4.8 1.81-7.33 2.07C563.74 336.33 563.71 338.98 565.42 338.81z"/>
    <path class="st6" d="M607.31 372.66c2.44-1.85 4.76-3.78 7.4-5.34 2.55-1.5 5.11-3 7.74-4.37 5.27-2.73 10.71-5.07 16.04-7.68 6.01-2.94 12.02-6.85 18.92-7.01 1.86-0.04 1.85-2.81 0-2.88 -6.07-0.23-11.76 3.25-16.99 5.9 -5.36 2.71-10.94 4.97-16.37 7.54 -5.4 2.55-10.42 5.5-15.12 9.19 -4.95 3.89-10.45 7.08-15.67 10.6 -5.26 3.54-10.17 7.89-16.64 8.92 -1.5 0.24-0.86 2.51 0.63 2.28 5.5-0.87 10.21-4.02 14.76-7.04C597.09 379.4 602.43 376.35 607.31 372.66z"/>
    <path class="st6" d="M646.06 357.34c-5.51 2.68-11.05 5.29-16.52 8.05 -5.41 2.74-10.76 5.57-15.84 8.89 -5.37 3.51-10.61 7.21-15.97 10.71 -2.71 1.77-5.28 3.81-8.14 5.33 -2.73 1.46-5.36 3.55-8.42 4.24 -1.46 0.33-0.84 2.54 0.62 2.24 2.72-0.56 4.96-2.16 7.36-3.46 2.47-1.35 4.85-2.72 7.21-4.26 2.67-1.74 5.45-3.31 8.09-5.09 2.56-1.72 5.14-3.43 7.73-5.11 10.23-6.65 21.23-11.77 32.16-17.13 3.04-1.49 6.07-3.06 9.17-4.44 3.09-1.37 6.45-1.86 9.57-3.08 1.38-0.54 1.32-2.78-0.37-2.75 -2.96 0.05-6.03 1.1-8.76 2.19C651.24 354.76 648.68 356.06 646.06 357.34z"/>
    <path class="st6" d="M652.02 362.09c-5.03 2.05-9.32 5.38-13.66 8.58 -1.37 1.01-0.05 3.34 1.35 2.32 4.06-2.96 8.22-5.96 12.88-7.91 2.39-1 4.94-1.65 7.42-2.36 2.53-0.72 4.98-1.56 7.61-1.83 1.43-0.15 1.97-2.29 0.36-2.68 -2.69-0.65-5.34 0.56-7.89 1.32C657.4 360.32 654.64 361.02 652.02 362.09z"/>
    <path class="st6" d="M644.47 375.67c-1.47 0.65-0.19 2.76 1.25 2.15 5.71-2.44 11.68-4.3 17.27-7.03 1.57-0.77 3.19-1.47 4.85-2.03 0.78-0.26 1.61-0.53 2.44-0.63 0.62-0.07 1.03 0.09 1.71 0.18 0.62 0.08 1.28-0.63 1.23-1.23 -0.38-4.48-8.87-0.08-10.74 0.81C656.59 370.73 650.44 373.03 644.47 375.67z"/>
    <path class="st6" d="M681.18 378.87c-0.84-4.34-10.12 2.77-11.55 3.77 -5.99 4.19-11.85 8.98-18.99 11.07 -1.56 0.46-0.9 2.88 0.67 2.44 6.98-1.93 12.94-5.93 18.71-10.2 1.78-1.32 3.58-2.63 5.48-3.77 0.93-0.56 1.9-1.15 2.91-1.56 0.28-0.11 0.57-0.17 0.87-0.27 0.04-0.01 0.06-0.02 0.08-0.02 0.03 0.01 0.05 0.01 0.07 0.01C680.36 380.72 681.4 380.03 681.18 378.87z"/>
  </g>
  <g class="trees" id="Trees">
    <path class="st6" d="M318.78 418.47c-0.06 0.12 0.01 0.25 0.07 0.37 0.05 0.08 0.09 0.16 0.14 0.24C319.03 418.39 318.83 418.37 318.78 418.47z"/>
    <path class="st6" d="M318.97 419.35c0.03-0.06 0.05-0.12 0.08-0.18 -0.02-0.03-0.04-0.06-0.05-0.09C318.99 419.16 318.98 419.25 318.97 419.35z"/>
    <path class="st6" d="M442.02 368.83c0.29-0.09 0.58-0.2 0.84-0.38C442.58 368.58 442.3 368.71 442.02 368.83z"/>
    <path class="st6" d="M535.24 389.96c0.26-0.2 0.47-0.47 0.58-0.8C535.63 389.42 535.44 389.69 535.24 389.96z"/>
    <path class="st6" d="M715.45 379.38c-2.74-6.46-6.26-13.05-11.5-16.04 0.36 3.86 0.7 7.83-0.46 11.53s-4.21 7.08-8.07 7.39c3.19 2.79 9.12 0.75 9.92-3.41 0.36 5.71-3.82 11.37-9.38 12.7 2.67 2.97 8.18 2.09 10.13-1.25 -3.02 6.6-7.17 12.68-12.25 17.87 -0.49 0.5-1 1.03-1.14 1.71 -0.14 0.7 0.16 1.42 0.18 2.13 0.03 1.04-0.51 2.02-0.48 3.06 0.01 0.23 0.05 0.44 0.1 0.65 -0.61 0.77-1.17 1.6-1.7 2.43 -0.49-0.43-0.93-0.91-1.29-1.42 -1.69-2.36-2.76-5.32-5.19-6.9 2.48 1.51 5.95 1.15 8.06-0.84 -1.8-0.06-3.3-1.52-3.97-3.19 -0.67-1.67-0.67-3.52-0.67-5.31 1.88 2.02 5.87 1.03 6.6-1.63 -2.06 0.75-4.43-0.26-5.91-1.88s-2.26-3.74-3-5.8c1.75 1.65 4.7 1.83 6.65 0.42 -3.14 1.31-6.28-1.82-8.04-4.74 -3.33-5.53-5.5-8.84-6.9-15.14 0.31 5.05-2.06 7.15-4.13 11.76 -0.8 1.79-1.65 3.63-3.12 4.92 -1.2 1.05-2.94 1.61-4.43 1.22 1.57-0.53 2.93-1.6 3.63-3.12 -4.84-1.57-8.62-6.01-9.39-11.04 2.26 1.17 5.19 0.9 7.19-0.68 -3.68 1.34-7.3-2.39-8.61-6.08 -1.31-3.69-1.68-7.95-4.41-10.76 -2.62 4.43-5.24 8.85-7.85 13.28 -1.33 2.25-2.95 4.71-5.52 5.22 3.39 0.77 7.15-0.42 9.47-3.01 -1.57 5.08-4.95 9.59-9.38 12.53 2.88 1.29 6.67-0.05 8.09-2.88 -0.35 3.88-2.23 7.54-5.01 10.26 -4.54 1.07-9.36-2.18-13.14-5.27 4.68 0.63 9.63-1.74 12.06-5.79 -4.61 0.59-9.43-2.43-10.9-6.84 3.71 0.58 7.67-1.69 9.04-5.18 -4.82-1.15-9.2-4.09-12.08-8.13 1.7 2.25 5.73 2 7.14-0.44 -4.04-1.86-7.55-4.85-10.05-8.52 1.72 2.15 5.41 2.46 7.39 0.49 -2.91 0.35-5.28-2.21-6.97-4.61 -3.3-4.68-6.13-9.68-8.44-14.92 -5.43 6.62-10.64 13.42-15.62 20.39 2.71-0.96 5.23-2.43 7.4-4.32 -2.51 4.52-5.92 8.53-9.98 11.73 3.32 0.17 6.48-2.77 6.54-6.09 -0.35 8.52-4.76 16.79-11.63 21.84 3.67 0.31 7.45-0.97 10.17-3.45 -3.14 5.54-7.72 10.11-12.23 14.59 3.76-0.43 7.25-2.6 9.44-5.68 -2.67 4.78-6.3 9.03-10.64 12.38 -0.19 0.15-0.38 0.3-0.58 0.45 -0.79-0.94-1.44-2.05-1.9-3.14 -1.31-3.18-2.19-6.93-5.13-8.71 3.03 1.12 6.73 0.08 8.73-2.46 -2.05 1.4-4.6-0.88-5.92-2.98 -3.67-5.81-6.51-12.15-8.42-18.75 -2.99 8.45-8.21 16.09-15 21.95 3.53 0.94 7.59-0.64 9.55-3.73 -0.97 5.17-3.74 9.99-7.73 13.42 2.62 2.09 6.41 0.06 9.09-1.95 -2.7 6-7.07 11.22-12.47 14.98 -2.59-2.59-4.46-5.9-5.24-9.48 2.36 2.53 7.36 1.34 8.33-1.98 -1.4 0.75-2.95-0.69-3.85-2 -3.89-5.69-6.84-12.02-8.7-18.66 -0.89 6.3-3.25 12.39-6.83 17.65 -1.6 2.35-3.7 4.69-6.51 5.14 2.11 1.58 5.43 1.19 7.11-0.84 -2.62 4.61-5.88 8.85-9.66 12.56 0.79 0.61 1.58 1.22 2.37 1.83 2.4-1.49 4.59-3.32 6.48-5.43 0.1 4.86-3.71 9.37-8.36 10.51 -0.3-0.28-0.59-0.58-0.85-0.88 -5.19-5.91-9.86-12.28-13.92-19.02 1.66 2.41 5.31 2.65 7.92 1.33 2.31-1.17 4-3.24 5.54-5.35 -0.77 0.59-2.03 0.63-2.92 0.12 -1.2-0.69-1.88-2-2.49-3.24 -1.89-3.81-3.78-7.62-5.66-11.42 3.14 1.36 7.14 0.29 9.19-2.45 -2.5 0.65-4.72-1.62-5.74-4.02 -1.02-2.4-1.32-5.08-2.55-7.38 1.75 3.09 7.16 2.84 8.62-0.4 -3.59-2.8-6.67-6.24-9.06-10.11 1.44 1.22 4.03 0.53 4.68-1.24 -4.66-3.59-7.45-9.48-7.29-15.36 -3.86 7.94-9.18 15.16-15.6 21.21 2.45 2.23 6.85 1.67 8.66-1.09 -1.41 5.66-3.59 11.12-6.47 16.19 -1.42 2.5-3.56 5.21-6.44 5.05 3.18 0.57 6.63-1.54 7.55-4.64 0.21 7.24-3.41 14.39-9.11 18.79 -4.54-5.83-8.07-12.44-10.37-19.46 0.84 1.44 2.81 1.89 4.42 1.46s2.96-1.52 4.24-2.58c-2.39 0.33-4.78-0.94-6.4-2.72 -1.63-1.78-2.63-4.03-3.61-6.24 -1.25-2.81-2.5-5.63-3.75-8.44 -0.68 8.01-4.31 15.73-10.05 21.35 2.62 0.18 5.3-0.82 7.17-2.67 -1.8 6.57-6.23 12.38-12.09 15.84 2.5 0.97 5.44 0.69 7.72-0.73 -1.78 4.27-4.73 8.04-8.45 10.79 4.54 0.77 9.45-1.69 11.54-5.8 -0.83 7.54-8.87 11.97-12.42 18.67 3.46-1.62 6.5-4.13 8.74-7.22 -0.56 6.87-4.75 12.8-9.69 17.75 -1.18-1.58-2.15-3.31-2.85-5.16 1.05 0.57 2.16 1.15 3.36 1.15 1.2 0 2.49-0.79 2.6-1.98 -2.84-1.69-5.33-3.98-7.24-6.68 -1.55-2.19-2.75-4.75-2.73-7.43 1.33 1.3 2.71 2.63 4.44 3.29 1.73 0.66 3.93 0.47 5.14-0.94 -4.39-2.94-6.59-8.15-8.56-13.06 -0.26-0.66-0.53-1.32-0.79-1.98 -0.98-2.44-1.93-5.35-0.51-7.57 -3.17 6.47-7.16 12.54-11.84 18.01 -0.94 1.09-2.04 2.24-3.47 2.37 2.76 1.27 6.17 1.02 8.73-0.63 -1.78 3.73-4.92 6.78-8.68 8.47 -0.46-0.61-0.84-1.3-1.19-1.98 -2.33-4.42-4.67-8.85-7-13.27 2.73 2.37 7.19 2.44 10 0.14 -4.25-1.41-6.38-6.03-8.05-10.18 -0.71-1.76-1.41-3.53-2.12-5.29 2.61 1.71 6.73-0.18 7.14-3.27 -2.45 0.2-4.95-1.1-6.21-3.21 1.42-0.65 2.84-1.3 4.26-1.95 -1.56 0.46-3.44-0.31-4.5-1.63 -1.27-1.56-1.67-3.63-2.04-5.6 0.97 0.85 2.47 0.83 3.64 0.29 1.17-0.54 2.09-1.49 2.98-2.42 -2.91 0.36-5.63-1.92-6.74-4.63 -1.11-2.71-0.99-5.75-0.83-8.68 -3.2 6.34-7.69 12.02-13.12 16.6 1.75 0.71 3.93 0.16 5.13-1.3 -3.03 6.71-7.87 12.59-13.88 16.85 2.62 0.42 5.42-0.69 7.05-2.77 -0.06 4.95-2.78 9.79-6.97 12.42 1.62 1.33 4.23 1.23 5.73-0.23 -1.1 2.52-2.74 4.81-4.78 6.66 -0.32 0.29-0.67 0.58-1.08 0.7 -1.35 0.37-2.41-1.14-2.9-2.45 -0.52-1.4-0.92-2.84-1.19-4.31 -1.15 3.8-2.34 7.67-4.59 10.94 -2.26 3.27-5.8 5.9-9.77 6.04 0.24 1.71 2.25 2.73 3.95 2.45 1.71-0.28 3.11-1.49 4.26-2.77 -2.04 4.4-5.68 7.83-9.43 10.91 -1.15 0.94-2.36 1.98-3.19 3.18 -0.6-0.59-1.12-1.27-1.63-1.94 -2.89-3.83-5.9-8-6.07-12.8 1.23 1.71 3.72 2.36 5.62 1.47 -2.47-3.16-4.12-6.96-4.73-10.92 2.33 1.57 5.66 1.48 7.91-0.2 -2.21 0.21-4.34-1.16-5.65-2.95 -1.31-1.8-1.95-3.98-2.57-6.12 -1.2-4.14-2.4-8.27-3.6-12.41 -1.91 4.94-3.91 10.02-7.62 13.8 -2.35 2.4-5.3 4.15-8.41 5.42 2.11 1.13 5.02 2.15 6.62 0.38 -1.51 3.98-5.13 7.08-9.3 7.96 2.23 2.19 6.23 2.22 8.48 0.05 -0.95 3.92-4.75 6.95-8.77 7.01 2.23 0.99 4.85 1 7.11 0.09 -1.62 1-2.74 2.81-3.9 4.38 -1.43 1.93-3.66 3.81-5.97 3.16 2.24 1.59 5.63 1.25 7.52-0.74 -1.8 3-4.32 5.56-7.3 7.4 -0.46 0.28-0.93 0.55-1.39 0.84 -1.37-1.69-2.75-3.39-4.12-5.08 1.72 0.42 3.58 0.18 5.14-0.64 -1.34 0.34-2.76-0.4-3.63-1.47 -0.87-1.07-1.3-2.42-1.71-3.74 2.31 1 4.81 1.54 7.32 1.59 -1.01-2.02-2.36-3.87-3.99-5.44 1.61 0.44 3.39 0.18 4.8-0.7 -1.87-0.53-3.63-1.43-5.15-2.63 2.56 0.72 5.54-0.79 6.47-3.27 -2.31 0-4.62-0.36-6.82-1.06 -1.98 0.91-4.63-1-5.45-3.15s-0.81-4.65-2.15-6.52c0.77 0.91 1.59 1.84 2.69 2.3 1.1 0.46 2.57 0.26 3.19-0.75 0.82-1.33-0.21-3-1.2-4.21 -1.49-1.83-2.98-3.65-4.47-5.48 1.43 1.4 3.77-0.03 5.2-1.44 -3.42-1.08-5.55-4.41-7.38-7.5 -1.65-2.78-3.3-5.56-4.95-8.34 -0.9 4.2-2.2 8.31-3.87 12.26 -2.1 4.94-5.08 9.91-9.91 12.23 1.91 0.87 4.34 0.43 5.82-1.05 -0.88 2.74-2.79 5.11-5.21 6.66 -5.22-1.01-10.01-4.06-13.13-8.36 1.83 2.16 5.32 2.8 7.75 1.28 -4.16-0.04-6.89-4.46-7.78-8.52 -0.9-4.06-0.9-8.52-3.26-11.94 -3.47 3.99-6.7 7.35-7.93 11.62 -0.97 3.36-0.6 6.94-0.12 10.41 0.53 3.9 1.22 7.86 3.11 11.31 2.72 4.93 7.59 8.22 12.28 11.32 1.02 0.67 2.07 1.35 3.23 1.67 -0.51 1.67-1.13 3.3-1.85 4.89 1.72 3.02 3.48 6.02 5.28 9 1.15 1.44 2.31 2.9 3.47 4.37 1.27 1.6 2.55 3.22 4.06 4.59 0.93 0.84 1.94 1.57 3.01 2.19 0 0 0 0 0 0.01 -0.75 1.07-1.38 2.22-1.89 3.43 20.7 7.73 45.26 7.84 69.27 7.72 56.4-0.29 112.79-1.4 169.18-2.5 15.04-0.3 30.09-0.59 45.14-0.88 16.42-0.33 32.84-0.65 49.26-0.97 0.68-0.01 1.37-0.03 2.06-0.05 6.13-0.17 12.42-0.7 17.52-4.01 3.51-2.28 6.05-6.39 6.46-10.44 0.22-0.12 0.44-0.23 0.66-0.36 5.24-3 7.85-9.12 8.24-15.24 0.68-0.67 1.31-1.41 1.9-2.15 4.49-5.64 8.58-11.6 12.22-17.82 1.17-2 2.31-4.07 2.69-6.35C718.14 386.19 716.85 382.66 715.45 379.38z"/>
  </g>
  <g class="back" id="Background">
    <polygon class="st6" points="511.75 764.77 391.75 542.77 631.75 542.77 "/>
    <path class="st7" d="M728.2 382.36L570.25 103.02l-1.53-2.71 -0.04-0.07 -16.46-29.1 -0.74-1.33 -0.02-0.03L512 0l-0.35 0.63 -12.06 21.34 -49.95 88.44 -0.98 1.74 -0.01 0.01L295.12 384l0.69 1.22 5.16 9.13 27.34 48.42L399.6 569 512 768l112.52-199 62.87-111.19 8.5-15.04 12.23-21.64 14.32-25.31 4.54-8.03 1.54-2.73 0.6-1.06L728.2 382.36zM512 749L307 384 511.88 28 718 384 512 749z"/>
    <rect x="278.06" y="444.27" class="st7" width="466" height="97"/>
    <rect x="287.06" y="453.27" class="st8" width="448" height="78"/>
    <path class="st6" d="M372.38 513.13h-3.71v-17.38H349.6v17.38h-3.71v-36.72h3.71v15.58h19.08v-15.58h3.71V513.13z"/>
    <path class="st6" d="M406.14 500.25c0 7.95-4.5 13.78-12.29 13.78 -7.9 0-13.04-5.83-13.04-13.78v-23.85h3.71v23.85c0 5.94 3.13 10.23 9.12 10.23 6.47 0 8.85-4.29 8.85-10.23v-23.85h3.66V500.25z"/>
    <path class="st6" d="M449.81 513.13h-3.55v-25.07l-13.51 25.07h-1.17l-13.41-25.07v25.07h-3.6v-36.72h1.06l16.59 30.15 16.48-30.15h1.11V513.13z"/>
    <path class="st6" d="M467.15 476.41c5.25 0 9.64 4.08 9.64 9.49 0 2.6-1.22 5.14-3.18 6.73 4.08 1.27 7.15 5.41 7.15 9.86 0 5.88-4.93 10.65-10.7 10.65H458.4v-36.72H467.15zM462.11 480.06v11.76h5.03c3.34 0 5.88-2.54 5.88-5.94 0-3.23-2.54-5.83-5.88-5.83H462.11zM462.11 495.54v13.88h7.95c3.92 0 7-3.13 7-6.84 0-3.92-3.07-7.05-7-7.05H462.11z"/>
    <path class="st6" d="M492.11 509.42h13.67v3.71H488.4v-36.72h3.71V509.42z"/>
    <path class="st6" d="M534.19 480.06h-17.17v11.39h16.64v3.87h-16.64v14.1h17.44v3.71h-21.14v-36.72h20.88V480.06z"/>
    <path class="st6" d="M572.72 476.41c5.83 0 10.76 4.77 10.76 10.6s-4.93 10.71-10.76 10.71h-7.95v15.42h-3.71v-36.72H572.72zM564.77 480.06v13.88h8c3.92 0 7-3.13 7-7 0-3.76-3.07-6.89-7-6.89H564.77z"/>
    <path class="st6" d="M606.85 480.06h-7.15v29.36h7.15v3.71h-18.12v-3.71h7.26v-29.36h-7.26v-3.66h18.12V480.06z"/>
    <path class="st6" d="M644.06 513.13h-1.59l-23.85-28.25v28.25h-3.82v-36.72h1.64l23.79 28.19v-28.19h3.82V513.13z"/>
    <path class="st6" d="M672.78 480.06h-8.9v33.07h-3.76v-33.07h-8.8v-3.66h21.46V480.06z"/>
    <path class="st9" d="M457.91 550.18c2.9 0 5.33 2.26 5.33 5.25 0 1.44-0.67 2.84-1.76 3.72 2.26 0.7 3.96 2.99 3.96 5.45 0 3.25-2.73 5.89-5.92 5.89h-6.45v-20.31H457.91zM455.12 552.2v6.51h2.78c1.85 0 3.25-1.41 3.25-3.28 0-1.79-1.41-3.22-3.25-3.22H455.12zM455.12 560.76v7.68h4.4c2.17 0 3.87-1.73 3.87-3.78 0-2.17-1.7-3.9-3.87-3.9H455.12z"/>
    <path class="st9" d="M473.59 550.18c3.22 0 5.95 2.64 5.95 5.86 0 2.76-1.96 5.07-4.4 5.72l4.51 8.74h-2.34l-4.34-8.53h-3.78v8.53h-2.05v-20.31H473.59zM469.19 552.2v7.68h4.43c2.17 0 3.87-1.73 3.87-3.87 0-2.08-1.7-3.81-3.87-3.81H469.19z"/>
    <path class="st9" d="M492.87 552.2h-9.5v6.3h9.2v2.14h-9.2v7.8h9.64v2.05h-11.7v-20.31h11.55V552.2z"/>
    <path class="st9" d="M512.56 570.49h-0.7l-5.16-15.48 -5.19 15.48h-0.7l-6.92-20.31h2.23l5.04 15.33 5.19-15.33h0.7l5.19 15.33 5.04-15.33h2.23L512.56 570.49z"/>
    <path class="st9" d="M530.35 552.2h-3.96v16.24h3.96v2.05h-10.03v-2.05h4.02V552.2h-4.02v-2.02h10.03V552.2z"/>
    <path class="st9" d="M548.4 570.49h-0.88l-13.19-15.62v15.62h-2.11v-20.31h0.91l13.16 15.59v-15.59h2.11V570.49z"/>
    <path class="st9" d="M566.98 553.7c-1.52-1.5-3.9-1.96-6.07-1.96 -4.87 0-8.65 4.1-8.65 8.71 0 4.78 4.02 8.5 8.65 8.5 4.22 0 7.77-2.05 8.41-6.33h-8.27v-2.05h10.49c0 6.57-4.43 10.43-10.64 10.43 -5.95 0-10.67-4.78-10.67-10.55 0-5.8 4.69-10.82 10.67-10.82 2.93 0 5.57 0.73 7.65 2.7L566.98 553.7z"/>
    <path class="st9" d="M505.6 580.84c-1.47-1.47-3.58-2.11-5.75-2.11 -4.87 0-8.65 4.1-8.65 8.71 0 4.78 4.02 8.5 8.65 8.5 2.73 0 4.92-1 6.51-2.9l1.61 1.35c-2.08 2.26-4.95 3.61-8.12 3.61 -5.95 0-10.67-4.78-10.67-10.55 0-5.8 4.69-10.82 10.67-10.82 2.93 0 5.31 0.94 7.27 2.78L505.6 580.84z"/>
    <path class="st9" d="M520.67 597.99c-5.89 0-10.7-4.69-10.7-10.55 0-5.8 4.57-10.82 10.55-10.82 6.16 0 10.84 4.87 10.84 10.7C531.36 593.27 526.64 597.99 520.67 597.99zM512.11 587.44c0 4.72 3.72 8.59 8.53 8.59 4.87 0 8.62-3.84 8.62-8.71 0-4.72-3.87-8.65-8.62-8.65C515.77 578.68 512.11 582.72 512.11 587.44z"/>
    <path class="st9" d="M534.96 595.97c0 0.91-0.67 1.58-1.52 1.58 -0.91 0-1.55-0.67-1.55-1.58 0-0.97 0.65-1.64 1.55-1.64C534.29 594.33 534.96 595 534.96 595.97z"/>
    <polygon class="st10" points="511.06 606.11 501.06 642.11 521.06 642.11 "/>
    <path class="st9" d="M504.69 655.01h-5.83v3.87h5.65v1.31h-5.65v4.79h5.92v1.26h-7.18v-12.48h7.09V655.01z"/>
    <path class="st9" d="M511.33 656.45c0-1.08-0.85-1.75-1.84-1.75 -1.17 0-1.75 0.77-1.75 1.66 0 1.64 1.62 2.2 2.79 2.84 1.44 0.81 2.59 2.14 2.59 3.78 0 2.36-1.91 3.49-3.64 3.49 -2.12 0-3.82-1.55-3.82-2.99l1.24-0.16c0.23 1.22 1.35 1.89 2.58 1.89 1.22 0 2.34-0.7 2.34-2.21 0-2.03-1.84-2.48-3.28-3.4 -1.1-0.7-2.11-1.73-2.11-3.24 0-1.93 1.58-2.93 3.04-2.93 1.66 0 3.04 1.01 3.04 2.92L511.33 656.45z"/>
    <path class="st9" d="M520.71 655.01h-3.02v11.24h-1.28v-11.24h-2.99v-1.24h7.29V655.01z"/>
    <path class="st9" d="M522.2 665.3c0 0.56-0.41 0.97-0.94 0.97 -0.56 0-0.95-0.41-0.95-0.97 0-0.59 0.4-1.01 0.95-1.01C521.79 664.3 522.2 664.71 522.2 665.3z"/>
    <path class="st9" d="M491.29 679.55c0-1.39 1.49-3.13 3.67-3.13 2.05 0 3.58 1.75 3.58 3.47 0 2-0.97 3.22-2.32 4.81l-2.77 3.28h5.29v1.26h-7.51v-0.54l3.82-4.63c1.64-1.98 2.25-2.74 2.25-4.09 0-1.24-1.15-2.27-2.43-2.27 -1.21 0-2.14 0.86-2.38 1.96L491.29 679.55z"/>
    <path class="st9" d="M509.24 682.99c0 4.32-1.96 6.55-4.34 6.55 -2.38 0-4.36-2.23-4.36-6.48 0-4.48 1.87-6.64 4.3-6.64C507.31 676.42 509.24 678.65 509.24 682.99zM501.72 683.07c0 3.42 1.37 5.28 3.17 5.28 1.8 0 3.2-1.87 3.2-5.35 0-3.62-1.46-5.31-3.2-5.31C503.08 677.68 501.72 679.37 501.72 683.07z"/>
    <path class="st9" d="M511.63 688h2.63v-8.52l-1.35 1.39 -0.83-0.88 3.44-3.47V688h2.39v1.24h-6.28V688z"/>
    <path class="st9" d="M528.39 677.34l-5.22 11.9h-1.39l4.93-11.24h-5.71v-1.24h7.38V677.34z"/>
  </g>
</svg>
